<?xml version="1.0" standalone="no"?>
<!DOCTYPE svg PUBLIC "-//W3C//DTD SVG 20010904//EN"
 "http://www.w3.org/TR/2001/REC-SVG-20010904/DTD/svg10.dtd">
<svg version="1.0" xmlns="http://www.w3.org/2000/svg"
 width="500.000000pt" height="500.000000pt" viewBox="0 0 500.000000 500.000000"
 preserveAspectRatio="xMidYMid meet">

<g transform="translate(0.000000,500.000000) scale(0.100000,-0.100000)"
fill="currentColor" stroke="none">
<path d="M366 3678 c-2 -7 -9 -47 -15 -88 -25 -167 -69 -464 -116 -770 -36
-240 -75 -505 -120 -810 -8 -52 -21 -138 -29 -190 -9 -52 -16 -98 -16 -102 0
-5 83 -8 184 -8 l184 0 11 63 c6 34 22 136 36 227 14 91 32 206 39 255 8 50
22 137 31 195 9 58 24 159 35 225 10 66 26 167 35 225 16 104 50 325 61 388
l5 32 1839 0 1838 0 6 38 c3 20 13 91 21 157 8 66 17 132 20 148 l4 27 -2025
0 c-1611 0 -2025 -3 -2028 -12z"/>
<path d="M4519 3601 c-23 -23 -29 -38 -29 -71 0 -33 6 -48 29 -71 65 -64 171
-20 171 71 0 33 -6 48 -29 71 -23 23 -38 29 -71 29 -33 0 -48 -6 -71 -29z
m132 -10 c20 -20 29 -39 29 -61 0 -22 -9 -41 -29 -61 -20 -20 -39 -29 -61 -29
-43 0 -90 47 -90 90 0 22 9 41 29 61 20 20 39 29 61 29 22 0 41 -9 61 -29z"/>
<path d="M4540 3531 c0 -28 5 -51 10 -51 6 0 10 9 10 20 0 11 6 20 13 20 8 0
22 -9 32 -20 10 -11 25 -20 33 -20 13 0 12 3 -2 19 -15 17 -15 19 -1 25 10 3
15 15 13 28 -3 20 -10 23 -55 26 l-53 3 0 -50z m85 19 c4 -6 -8 -10 -29 -10
-20 0 -36 5 -36 10 0 6 13 10 29 10 17 0 33 -4 36 -10z"/>
<path d="M4376 3293 c-4 -16 -22 -127 -40 -248 -90 -578 -148 -957 -176 -1130
-16 -104 -30 -196 -30 -202 0 -10 -379 -13 -1842 -15 l-1842 -3 -18 -135 c-9
-74 -19 -156 -23 -183 l-6 -47 2028 2 2028 3 12 85 c7 47 22 144 33 215 21
137 38 253 95 635 19 129 42 280 50 335 8 55 24 160 35 233 11 72 29 189 39
260 11 70 22 148 26 175 l6 47 -185 0 -184 0 -6 -27z"/>
<path d="M1053 2635 l-152 -375 93 0 92 0 119 296 c89 221 121 291 127 278 5
-11 44 -107 87 -214 l78 -195 -143 -3 c-79 -1 -144 -5 -144 -7 0 -3 14 -39 31
-80 l32 -75 238 0 238 0 -152 375 -151 375 -121 0 -121 0 -151 -375z"/>
<path d="M1980 2635 l0 -375 305 0 306 0 -3 78 -3 77 -217 3 -218 2 0 295 0
295 -85 0 -85 0 0 -375z"/>
<path d="M2820 2635 l0 -375 85 0 85 0 0 215 c0 118 3 215 8 215 4 0 46 -61
94 -135 l88 -135 104 0 104 0 91 138 91 137 0 -217 0 -218 90 0 90 0 0 375 0
375 -87 0 -88 -1 -146 -219 -146 -220 -144 217 -145 218 -87 3 -87 3 0 -376z"/>
<path d="M1810 2310 l0 -50 55 0 55 0 0 50 0 50 -55 0 -55 0 0 -50z"/>
<path d="M2650 2310 l0 -50 55 0 55 0 0 50 0 50 -55 0 -55 0 0 -50z"/>
<path d="M1380 2030 l0 -70 30 0 30 0 0 70 0 70 -30 0 -30 0 0 -70z"/>
<path d="M1560 2030 c0 -68 1 -70 25 -70 23 0 25 4 25 45 0 25 2 45 5 45 3 0
46 -20 95 -45 125 -63 130 -62 130 25 0 68 -1 70 -25 70 -23 0 -25 -4 -25 -45
0 -25 -2 -45 -4 -45 -2 0 -47 20 -100 45 -54 25 -104 45 -112 45 -11 0 -14
-16 -14 -70z"/>
<path d="M1960 2030 l0 -70 30 0 c25 0 30 4 30 25 0 23 3 25 50 25 38 0 50 4
50 15 0 11 -12 15 -50 15 -37 0 -50 4 -50 15 0 11 19 15 92 17 62 2 93 7 96
16 3 9 -26 12 -122 12 l-126 0 0 -70z"/>
<path d="M2280 2030 c0 -68 1 -70 25 -70 24 0 25 2 25 70 0 68 -1 70 -25 70
-24 0 -25 -2 -25 -70z"/>
<path d="M2472 2091 c-8 -5 -12 -21 -10 -37 l3 -29 99 -5 c73 -4 101 -9 104
-19 4 -12 -14 -13 -107 -9 -86 4 -111 3 -111 -7 0 -7 7 -16 16 -19 24 -9 217
-7 232 3 8 4 12 21 10 37 -4 35 -24 42 -130 43 -51 1 -78 5 -78 12 0 9 30 10
105 7 82 -5 105 -3 105 7 0 7 -7 16 -16 19 -24 9 -207 7 -222 -3z"/>
<path d="M2848 2089 c-21 -12 -23 -40 -6 -57 8 -8 46 -12 105 -12 80 0 93 -2
93 -16 0 -15 -13 -16 -110 -12 -107 5 -131 0 -91 -22 23 -12 220 -13 239 -1 8
5 12 21 10 37 -4 34 -25 41 -135 43 -48 1 -73 5 -73 12 0 9 30 10 105 7 102
-6 125 0 86 22 -25 13 -201 13 -223 -1z"/>
<path d="M3210 2030 c0 -68 1 -70 25 -70 24 0 25 2 25 70 0 68 -1 70 -25 70
-24 0 -25 -2 -25 -70z"/>
</g>
</svg>
