0
SECTION
2
ENTITIES
0
LINE
8
0
10
1086.139319
20
788.970953
30
0.0
11
1086.139319
21
796.756839
31
0.0
0
ARC
8
0
10
1085.839319
20
796.756839
30
0.0
40
0.300000
50
360.000000
51
90.000000
0
LINE
8
0
10
1085.839319
20
797.056839
30
0.0
11
1075.632188
21
797.056839
31
0.0
0
ARC
8
0
10
1075.632188
20
795.556839
30
0.0
40
1.500000
50
90.000000
51
120.000000
0
LINE
8
0
10
1074.882188
20
796.855877
30
0.0
11
1074.191033
21
796.456839
31
0.0
0
LINE
8
0
10
1074.191033
20
796.456839
30
0.0
11
1073.199501
21
795.884377
31
0.0
0
ARC
8
0
10
1073.098213
20
796.056839
30
0.0
40
0.200000
50
270.000000
51
300.000000
0
LINE
8
0
10
1073.098213
20
795.856839
30
0.0
11
1072.934335
21
795.856839
31
0.0
0
ARC
8
0
10
1072.934335
20
796.256839
30
0.0
40
0.400000
50
180.000000
51
270.000000
0
LINE
8
0
10
1072.534335
20
796.256839
30
0.0
11
1072.534335
21
796.889482
31
0.0
0
LINE
8
0
10
1072.534335
20
796.889482
30
0.0
11
1072.622866
21
797.391569
31
0.0
0
ARC
8
0
10
1072.819828
20
797.356839
30
0.0
40
0.200000
50
90.000000
51
170.000000
0
LINE
8
0
10
1072.819828
20
797.556839
30
0.0
11
1072.923780
21
797.556839
31
0.0
0
ARC
8
0
10
1072.923780
20
797.356839
30
0.0
40
0.200000
50
58.997281
51
90.000000
0
ARC
8
0
10
1073.284335
20
797.956839
30
0.0
40
0.500000
50
238.997281
51
270.000000
0
ARC
8
0
10
1073.284335
20
797.956839
30
0.0
40
0.500000
50
270.000000
51
90.000000
0
ARC
8
0
10
1073.284335
20
797.956839
30
0.0
40
0.500000
50
90.000000
51
121.002719
0
ARC
8
0
10
1072.923780
20
798.556839
30
0.0
40
0.200000
50
270.000000
51
301.002719
0
LINE
8
0
10
1072.923780
20
798.356839
30
0.0
11
1072.821175
21
798.356839
31
0.0
0
ARC
8
0
10
1072.821175
20
798.556839
30
0.0
40
0.200000
50
190.000000
51
270.000000
0
LINE
8
0
10
1072.624214
20
798.522109
30
0.0
11
1072.534335
21
799.031839
31
0.0
0
LINE
8
0
10
1072.534335
20
799.031839
30
0.0
11
1072.534335
21
799.656839
31
0.0
0
ARC
8
0
10
1072.934335
20
799.656839
30
0.0
40
0.400000
50
90.000000
51
180.000000
0
LINE
8
0
10
1072.934335
20
800.056839
30
0.0
11
1073.098213
21
800.056839
31
0.0
0
ARC
8
0
10
1073.098213
20
799.856839
30
0.0
40
0.200000
50
60.000000
51
90.000000
0
LINE
8
0
10
1073.198213
20
800.030044
30
0.0
11
1074.191033
21
799.456839
31
0.0
0
LINE
8
0
10
1074.191033
20
799.456839
30
0.0
11
1074.993636
21
798.993456
31
0.0
0
ARC
8
0
10
1075.503499
20
799.876565
30
0.0
40
1.019726
50
240.000000
51
270.000000
0
LINE
8
0
10
1075.503499
20
798.856839
30
0.0
11
1075.775421
21
798.856839
31
0.0
0
ARC
8
0
10
1075.803777
20
799.155496
30
0.0
40
0.300000
50
264.576381
51
345.000000
0
LINE
8
0
10
1076.093554
20
799.077850
30
0.0
11
1076.680515
21
800.768415
31
0.0
0
ARC
8
0
10
1077.646440
20
800.509596
30
0.0
40
1.000000
50
102.009303
51
165.000000
0
ARC
8
0
10
1077.334335
20
801.976767
30
0.0
40
0.500000
50
282.009303
51
360.000000
0
LINE
8
0
10
1077.834335
20
801.976767
30
0.0
11
1077.834335
21
805.009596
31
0.0
0
ARC
8
0
10
1078.334335
20
805.009596
30
0.0
40
0.500000
50
90.000000
51
180.000000
0
LINE
8
0
10
1078.334335
20
805.509596
30
0.0
11
1079.713113
21
805.509596
31
0.0
0
ARC
8
0
10
1079.713113
20
805.209596
30
0.0
40
0.300000
50
17.189516
51
90.000000
0
LINE
8
0
10
1079.999713
20
805.298256
30
0.0
11
1080.225401
21
804.568703
31
0.0
0
LINE
8
0
10
1080.234335
20
804.509596
30
0.0
11
1080.225401
21
804.568703
31
0.0
0
ARC
8
0
10
1080.034335
20
804.509596
30
0.0
40
0.200000
50
270.000000
51
360.000000
0
LINE
8
0
10
1080.034335
20
804.309596
30
0.0
11
1079.134335
21
804.309596
31
0.0
0
ARC
8
0
10
1079.134335
20
804.009596
30
0.0
40
0.300000
50
90.000000
51
180.000000
0
LINE
8
0
10
1078.834335
20
804.009596
30
0.0
11
1078.834335
21
801.809596
31
0.0
0
ARC
8
0
10
1079.134335
20
801.809596
30
0.0
40
0.300000
50
180.000000
51
270.000000
0
LINE
8
0
10
1079.134335
20
801.509596
30
0.0
11
1085.834335
21
801.509596
31
0.0
0
ARC
8
0
10
1085.834335
20
801.809596
30
0.0
40
0.300000
50
270.000000
51
360.000000
0
LINE
8
0
10
1086.134335
20
801.809596
30
0.0
11
1086.134335
21
804.009596
31
0.0
0
ARC
8
0
10
1085.834335
20
804.009596
30
0.0
40
0.300000
50
360.000000
51
90.000000
0
LINE
8
0
10
1085.834335
20
804.309596
30
0.0
11
1084.934335
21
804.309596
31
0.0
0
ARC
8
0
10
1084.934335
20
804.509596
30
0.0
40
0.200000
50
180.000000
51
270.000000
0
LINE
8
0
10
1084.743268
20
804.568703
30
0.0
11
1084.734335
21
804.509596
31
0.0
0
LINE
8
0
10
1084.743268
20
804.568703
30
0.0
11
1084.968956
21
805.298256
31
0.0
0
ARC
8
0
10
1085.255556
20
805.209596
30
0.0
40
0.300000
50
90.000000
51
162.810484
0
LINE
8
0
10
1085.255556
20
805.509596
30
0.0
11
1087.813113
21
805.509596
31
0.0
0
ARC
8
0
10
1087.813113
20
805.209596
30
0.0
40
0.300000
50
17.189516
51
90.000000
0
LINE
8
0
10
1088.099713
20
805.298256
30
0.0
11
1088.325401
21
804.568703
31
0.0
0
LINE
8
0
10
1088.334335
20
804.509596
30
0.0
11
1088.325401
21
804.568703
31
0.0
0
ARC
8
0
10
1088.134335
20
804.509596
30
0.0
40
0.200000
50
270.000000
51
360.000000
0
LINE
8
0
10
1088.134335
20
804.309596
30
0.0
11
1087.234335
21
804.309596
31
0.0
0
ARC
8
0
10
1087.234335
20
804.009596
30
0.0
40
0.300000
50
90.000000
51
180.000000
0
LINE
8
0
10
1086.934335
20
804.009596
30
0.0
11
1086.934335
21
801.809596
31
0.0
0
ARC
8
0
10
1087.234335
20
801.809596
30
0.0
40
0.300000
50
180.000000
51
270.000000
0
LINE
8
0
10
1087.234335
20
801.509596
30
0.0
11
1093.934335
21
801.509596
31
0.0
0
ARC
8
0
10
1093.934335
20
801.809596
30
0.0
40
0.300000
50
270.000000
51
360.000000
0
LINE
8
0
10
1094.234335
20
801.809596
30
0.0
11
1094.234335
21
804.009596
31
0.0
0
ARC
8
0
10
1093.934335
20
804.009596
30
0.0
40
0.300000
50
360.000000
51
90.000000
0
LINE
8
0
10
1093.934335
20
804.309596
30
0.0
11
1093.034335
21
804.309596
31
0.0
0
ARC
8
0
10
1093.034335
20
804.509596
30
0.0
40
0.200000
50
180.000000
51
270.000000
0
LINE
8
0
10
1092.843268
20
804.568703
30
0.0
11
1092.834335
21
804.509596
31
0.0
0
LINE
8
0
10
1092.843268
20
804.568703
30
0.0
11
1093.068956
21
805.298256
31
0.0
0
ARC
8
0
10
1093.355556
20
805.209596
30
0.0
40
0.300000
50
90.000000
51
162.810484
0
LINE
8
0
10
1093.355556
20
805.509596
30
0.0
11
1094.734335
21
805.509596
31
0.0
0
ARC
8
0
10
1094.734335
20
805.009596
30
0.0
40
0.500000
50
360.000000
51
90.000000
0
LINE
8
0
10
1095.234335
20
805.009596
30
0.0
11
1095.234335
21
801.976767
31
0.0
0
ARC
8
0
10
1095.734335
20
801.976767
30
0.0
40
0.500000
50
180.000000
51
257.990697
0
ARC
8
0
10
1095.422229
20
800.509596
30
0.0
40
1.000000
50
15.000000
51
77.990697
0
LINE
8
0
10
1096.388155
20
800.768415
30
0.0
11
1096.975115
21
799.077850
31
0.0
0
ARC
8
0
10
1097.264893
20
799.155496
30
0.0
40
0.300000
50
195.000000
51
275.423619
0
LINE
8
0
10
1097.293248
20
798.856839
30
0.0
11
1097.565171
21
798.856839
31
0.0
0
ARC
8
0
10
1097.565171
20
799.876565
30
0.0
40
1.019726
50
270.000000
51
300.000000
0
LINE
8
0
10
1098.075034
20
798.993456
30
0.0
11
1099.870456
21
800.030044
31
0.0
0
ARC
8
0
10
1099.970456
20
799.856839
30
0.0
40
0.200000
50
90.000000
51
120.000000
0
LINE
8
0
10
1099.970456
20
800.056839
30
0.0
11
1100.134335
21
800.056839
31
0.0
0
ARC
8
0
10
1100.134335
20
799.656839
30
0.0
40
0.400000
50
360.000000
51
90.000000
0
LINE
8
0
10
1100.534335
20
799.656839
30
0.0
11
1100.534335
21
799.031839
31
0.0
0
LINE
8
0
10
1100.534335
20
799.031839
30
0.0
11
1100.444456
21
798.522109
31
0.0
0
ARC
8
0
10
1100.247494
20
798.556839
30
0.0
40
0.200000
50
270.000000
51
350.000000
0
LINE
8
0
10
1100.247494
20
798.356839
30
0.0
11
1100.144890
21
798.356839
31
0.0
0
ARC
8
0
10
1100.144890
20
798.556839
30
0.0
40
0.200000
50
238.997281
51
270.000000
0
ARC
8
0
10
1099.784335
20
797.956839
30
0.0
40
0.500000
50
58.997281
51
90.000000
0
ARC
8
0
10
1099.784335
20
797.956839
30
0.0
40
0.500000
50
90.000000
51
180.000000
0
ARC
8
0
10
1099.784335
20
797.956839
30
0.0
40
0.500000
50
180.000000
51
270.000000
0
ARC
8
0
10
1099.784335
20
797.956839
30
0.0
40
0.500000
50
270.000000
51
301.002719
0
ARC
8
0
10
1100.144890
20
797.356839
30
0.0
40
0.200000
50
90.000000
51
121.002719
0
LINE
8
0
10
1100.144890
20
797.556839
30
0.0
11
1100.248842
21
797.556839
31
0.0
0
ARC
8
0
10
1100.248842
20
797.356839
30
0.0
40
0.200000
50
10.000000
51
90.000000
0
LINE
8
0
10
1100.445803
20
797.391569
30
0.0
11
1100.534335
21
796.889482
31
0.0
0
LINE
8
0
10
1100.534335
20
796.889482
30
0.0
11
1100.534335
21
796.256839
31
0.0
0
ARC
8
0
10
1100.134335
20
796.256839
30
0.0
40
0.400000
50
270.000000
51
360.000000
0
LINE
8
0
10
1100.134335
20
795.856839
30
0.0
11
1099.970456
21
795.856839
31
0.0
0
ARC
8
0
10
1099.970456
20
796.056839
30
0.0
40
0.200000
50
240.000000
51
270.000000
0
LINE
8
0
10
1099.869168
20
795.884377
30
0.0
11
1098.186482
21
796.855877
31
0.0
0
ARC
8
0
10
1097.436482
20
795.556839
30
0.0
40
1.500000
50
60.000000
51
90.000000
0
LINE
8
0
10
1097.436482
20
797.056839
30
0.0
11
1087.239319
21
797.056839
31
0.0
0
ARC
8
0
10
1087.239319
20
796.756839
30
0.0
40
0.300000
50
90.000000
51
180.000000
0
LINE
8
0
10
1086.939319
20
796.756839
30
0.0
11
1086.939319
21
788.970953
31
0.0
0
ARC
8
0
10
1086.539319
20
788.970953
30
0.0
40
0.400000
50
180.000000
51
360.000000
0
ARC
8
0
10
1077.799906
20
800.309596
30
0.0
40
0.500000
50
90.000000
51
165.000000
0
LINE
8
0
10
1077.316943
20
800.439006
30
0.0
11
1076.820138
21
799.084905
31
0.0
0
ARC
8
0
10
1077.303101
20
798.955496
30
0.0
40
0.500000
50
165.000000
51
270.000000
0
LINE
8
0
10
1077.303101
20
798.455496
30
0.0
11
1085.884383
21
798.456871
31
0.0
0
ARC
8
0
10
1085.884335
20
798.756871
30
0.0
40
0.300000
50
270.000000
51
360.000000
0
LINE
8
0
10
1086.184335
20
798.756871
30
0.0
11
1086.184335
21
800.509596
31
0.0
0
ARC
8
0
10
1085.884335
20
800.509596
30
0.0
40
0.300000
50
360.000000
51
90.000000
0
LINE
8
0
10
1085.884335
20
800.809596
30
0.0
11
1077.799906
21
800.809596
31
0.0
0
ARC
8
0
10
1087.184335
20
800.509596
30
0.0
40
0.300000
50
90.000000
51
180.000000
0
LINE
8
0
10
1086.884335
20
800.509596
30
0.0
11
1086.884335
21
798.756871
31
0.0
0
ARC
8
0
10
1087.184335
20
798.756871
30
0.0
40
0.300000
50
180.000000
51
270.000000
0
LINE
8
0
10
1087.184287
20
798.456871
30
0.0
11
1095.765568
21
798.455496
31
0.0
0
ARC
8
0
10
1095.765568
20
798.955496
30
0.0
40
0.500000
50
270.000000
51
15.000000
0
LINE
8
0
10
1096.248531
20
799.084905
30
0.0
11
1095.751726
21
800.439006
31
0.0
0
ARC
8
0
10
1095.268764
20
800.309596
30
0.0
40
0.500000
50
15.000000
51
90.000000
0
LINE
8
0
10
1095.268764
20
800.809596
30
0.0
11
1087.184335
21
800.809596
31
0.0
0
LINE
8
0
10
1128.541700
20
800.509777
30
0.0
11
1128.541700
21
785.509778
31
0.0
0
LINE
8
0
10
1128.541700
20
785.509778
30
0.0
11
1127.481238
21
785.509778
31
0.0
0
ARC
8
0
10
1127.481238
20
786.009778
30
0.0
40
0.500000
50
200.000000
51
270.000000
0
LINE
8
0
10
1127.011392
20
785.838768
30
0.0
11
1126.317578
21
787.745007
31
0.0
0
ARC
8
0
10
1125.941700
20
787.608199
30
0.0
40
0.400000
50
20.000000
51
180.000000
0
LINE
8
0
10
1125.541700
20
787.608199
30
0.0
11
1125.541700
21
785.509778
31
0.0
0
LINE
8
0
10
1125.541700
20
785.509778
30
0.0
11
1102.041701
21
785.509778
31
0.0
0
LINE
8
0
10
1102.041701
20
785.509778
30
0.0
11
1102.041701
21
800.509777
31
0.0
0
LINE
8
0
10
1102.041701
20
800.509777
30
0.0
11
1125.541700
21
800.509777
31
0.0
0
LINE
8
0
10
1125.541700
20
800.509777
30
0.0
11
1125.541700
21
798.411357
31
0.0
0
ARC
8
0
10
1125.941700
20
798.411357
30
0.0
40
0.400000
50
180.000000
51
340.000000
0
LINE
8
0
10
1126.317578
20
798.274548
30
0.0
11
1127.011392
21
800.180787
31
0.0
0
ARC
8
0
10
1127.481238
20
800.009777
30
0.0
40
0.500000
50
90.000000
51
160.000000
0
LINE
8
0
10
1127.481238
20
800.509777
30
0.0
11
1128.541700
21
800.509777
31
0.0
0
LINE
8
0
10
1097.534335
20
783.944353
30
0.0
11
1097.534335
21
782.873016
31
0.0
0
ARC
8
0
10
1097.734335
20
782.873016
30
0.0
40
0.200000
50
180.000000
51
301.290649
0
LINE
8
0
10
1097.838211
20
782.702107
30
0.0
11
1099.434335
21
783.672209
31
0.0
0
LINE
8
0
10
1099.434335
20
783.672209
30
0.0
11
1100.034335
21
783.672209
31
0.0
0
ARC
8
0
10
1099.934335
20
783.389367
30
0.0
40
0.300000
50
289.471220
51
70.528779
0
LINE
8
0
10
1100.034335
20
783.106524
30
0.0
11
1100.034335
21
779.372209
31
0.0
0
ARC
8
0
10
1099.934335
20
779.089367
30
0.0
40
0.300000
50
270.000000
51
70.528779
0
LINE
8
0
10
1099.934335
20
778.789367
30
0.0
11
1099.627520
21
778.789367
31
0.0
0
LINE
8
0
10
1099.627520
20
778.789367
30
0.0
11
1097.581830
21
779.337508
31
0.0
0
LINE
8
0
10
1097.581830
20
779.337508
30
0.0
11
1097.531296
21
779.624096
31
0.0
0
ARC
8
0
10
1097.334335
20
779.589367
30
0.0
40
0.200000
50
10.000000
51
130.000000
0
LINE
8
0
10
1097.205777
20
779.742576
30
0.0
11
1097.073173
21
779.631307
31
0.0
0
ARC
8
0
10
1097.523124
20
779.095076
30
0.0
40
0.700000
50
130.000000
51
185.000000
0
LINE
8
0
10
1096.825788
20
779.034067
30
0.0
11
1097.024461
21
776.763220
31
0.0
0
ARC
8
0
10
1097.323319
20
776.789367
30
0.0
40
0.300000
50
185.000000
51
295.000000
0
LINE
8
0
10
1097.450105
20
776.517474
30
0.0
11
1099.578107
21
777.509778
31
0.0
0
LINE
8
0
10
1099.578107
20
777.509778
30
0.0
11
1104.230745
21
777.509778
31
0.0
0
LINE
8
0
10
1104.230745
20
777.509778
30
0.0
11
1104.531479
21
778.632132
31
0.0
0
ARC
8
0
10
1104.241701
20
778.709778
30
0.0
40
0.300000
50
344.999960
51
90.000000
0
LINE
8
0
10
1104.241701
20
779.009778
30
0.0
11
1102.041701
21
779.009778
31
0.0
0
LINE
8
0
10
1102.041701
20
779.009778
30
0.0
11
1102.041701
21
782.009778
31
0.0
0
LINE
8
0
10
1102.041701
20
782.009778
30
0.0
11
1104.231690
21
782.009778
31
0.0
0
ARC
8
0
10
1104.231690
20
782.309778
30
0.0
40
0.300000
50
270.000000
51
56.075438
0
LINE
8
0
10
1104.399120
20
782.558710
30
0.0
11
1103.057842
21
783.460846
31
0.0
0
ARC
8
0
10
1103.225273
20
783.709778
30
0.0
40
0.300000
50
90.000000
51
236.075438
0
LINE
8
0
10
1103.225273
20
784.009778
30
0.0
11
1110.241701
21
784.009778
31
0.0
0
LINE
8
0
10
1110.241701
20
784.009778
30
0.0
11
1110.541701
21
784.309778
31
0.0
0
LINE
8
0
10
1110.541701
20
784.309778
30
0.0
11
1110.841701
21
784.009778
31
0.0
0
LINE
8
0
10
1110.841701
20
784.009778
30
0.0
11
1120.983898
21
784.009778
31
0.0
0
ARC
8
0
10
1120.983898
20
783.709778
30
0.0
40
0.300000
50
301.667403
51
90.000000
0
LINE
8
0
10
1121.141394
20
783.454445
30
0.0
11
1119.699606
21
782.565111
31
0.0
0
ARC
8
0
10
1119.857102
20
782.309778
30
0.0
40
0.300000
50
121.667403
51
270.000000
0
LINE
8
0
10
1119.857102
20
782.009778
30
0.0
11
1122.041700
21
782.009778
31
0.0
0
LINE
8
0
10
1122.041700
20
782.009778
30
0.0
11
1122.041700
21
779.009778
31
0.0
0
LINE
8
0
10
1122.041700
20
779.009778
30
0.0
11
1119.841701
21
779.009778
31
0.0
0
ARC
8
0
10
1119.841701
20
778.709778
30
0.0
40
0.300000
50
90.000000
51
195.000053
0
LINE
8
0
10
1119.551924
20
778.632132
30
0.0
11
1119.852657
21
777.509778
31
0.0
0
LINE
8
0
10
1119.852657
20
777.509778
30
0.0
11
1123.541700
21
777.509778
31
0.0
0
ARC
8
0
10
1123.541700
20
777.809778
30
0.0
40
0.300000
50
270.000000
51
35.962229
0
LINE
8
0
10
1123.784522
20
777.985954
30
0.0
11
1123.541700
21
779.009778
31
0.0
0
LINE
8
0
10
1123.541700
20
779.009778
30
0.0
11
1123.541700
21
783.709778
31
0.0
0
ARC
8
0
10
1123.841700
20
783.709778
30
0.0
40
0.300000
50
90.000000
51
180.000000
0
LINE
8
0
10
1123.841700
20
784.009778
30
0.0
11
1126.241700
21
784.009778
31
0.0
0
LINE
8
0
10
1126.241700
20
784.009778
30
0.0
11
1126.675258
21
783.171907
31
0.0
0
ARC
8
0
10
1126.941700
20
783.309778
30
0.0
40
0.300000
50
207.359369
51
360.000000
0
LINE
8
0
10
1127.241700
20
783.309778
30
0.0
11
1127.241700
21
784.009778
31
0.0
0
LINE
8
0
10
1127.241700
20
784.009778
30
0.0
11
1127.941700
21
784.009778
31
0.0
0
ARC
8
0
10
1127.941700
20
783.509778
30
0.0
40
0.500000
50
360.000000
51
90.000000
0
LINE
8
0
10
1128.441700
20
783.509778
30
0.0
11
1128.441700
21
766.909778
31
0.0
0
LINE
8
0
10
1128.441700
20
766.909778
30
0.0
11
1127.241700
21
766.909778
31
0.0
0
LINE
8
0
10
1127.241700
20
766.909778
30
0.0
11
1127.241700
21
767.609778
31
0.0
0
ARC
8
0
10
1126.941700
20
767.609778
30
0.0
40
0.300000
50
360.000000
51
152.640631
0
LINE
8
0
10
1126.675258
20
767.747649
30
0.0
11
1126.241700
21
766.909778
31
0.0
0
LINE
8
0
10
1126.241700
20
766.909778
30
0.0
11
1125.541700
21
766.909778
31
0.0
0
LINE
8
0
10
1125.541700
20
766.909778
30
0.0
11
1125.541700
21
765.110099
31
0.0
0
ARC
8
0
10
1125.941700
20
765.110099
30
0.0
40
0.400000
50
180.000000
51
360.000000
0
LINE
8
0
10
1126.341700
20
765.110099
30
0.0
11
1126.341700
21
765.709778
31
0.0
0
LINE
8
0
10
1126.341700
20
765.709778
30
0.0
11
1127.841700
21
765.709778
31
0.0
0
LINE
8
0
10
1127.841700
20
765.709778
30
0.0
11
1127.841700
21
764.551697
31
0.0
0
ARC
8
0
10
1128.041700
20
764.551697
30
0.0
40
0.200000
50
180.000000
51
299.205731
0
LINE
8
0
10
1128.139290
20
764.377123
30
0.0
11
1128.544111
21
764.603423
31
0.0
0
ARC
8
0
10
1128.641700
20
764.428848
30
0.0
40
0.200000
50
360.000000
51
119.205731
0
LINE
8
0
10
1128.841700
20
764.428848
30
0.0
11
1128.841700
21
762.490708
31
0.0
0
ARC
8
0
10
1128.641700
20
762.490708
30
0.0
40
0.200000
50
240.794269
51
360.000000
0
LINE
8
0
10
1128.544111
20
762.316133
30
0.0
11
1128.139290
21
762.542433
31
0.0
0
ARC
8
0
10
1128.041700
20
762.367859
30
0.0
40
0.200000
50
60.794269
51
180.000000
0
LINE
8
0
10
1127.841700
20
762.367859
30
0.0
11
1127.841700
21
761.209778
31
0.0
0
LINE
8
0
10
1127.841700
20
761.209778
30
0.0
11
1126.341700
21
761.209778
31
0.0
0
LINE
8
0
10
1126.341700
20
761.209778
30
0.0
11
1126.341700
21
761.809457
31
0.0
0
ARC
8
0
10
1125.941701
20
761.809457
30
0.0
40
0.400000
50
360.000000
51
180.000000
0
LINE
8
0
10
1125.541701
20
761.809457
30
0.0
11
1125.541700
21
760.009778
31
0.0
0
LINE
8
0
10
1125.541700
20
760.009778
30
0.0
11
1127.041700
21
760.009778
31
0.0
0
ARC
8
0
10
1127.041700
20
763.009778
30
0.0
40
3.000000
50
270.000000
51
360.000000
0
LINE
8
0
10
1130.041700
20
763.009778
30
0.0
11
1130.041700
21
823.009776
31
0.0
0
ARC
8
0
10
1124.041700
20
823.009776
30
0.0
40
6.000000
50
360.000000
51
90.000000
0
LINE
8
0
10
1124.041700
20
829.009776
30
0.0
11
1113.541701
21
829.009776
31
0.0
0
LINE
8
0
10
1113.541701
20
829.009776
30
0.0
11
1113.541701
21
827.009776
31
0.0
0
LINE
8
0
10
1113.541701
20
827.009776
30
0.0
11
1115.041701
21
827.009776
31
0.0
0
LINE
8
0
10
1115.041701
20
827.009776
30
0.0
11
1115.041701
21
827.509776
31
0.0
0
LINE
8
0
10
1115.041701
20
827.509776
30
0.0
11
1123.533638
21
827.509776
31
0.0
0
ARC
8
0
10
1123.533638
20
822.509776
30
0.0
40
5.000000
50
359.140628
51
90.000000
0
LINE
8
0
10
1128.533076
20
822.434784
30
0.0
11
1128.241700
21
803.009777
31
0.0
0
ARC
8
0
10
1127.241700
20
803.009777
30
0.0
40
1.000000
50
270.000000
51
360.000000
0
LINE
8
0
10
1127.241700
20
802.009777
30
0.0
11
1106.341700
21
802.009777
31
0.0
0
LINE
8
0
10
1106.341700
20
802.009777
30
0.0
11
1106.341700
21
805.509777
31
0.0
0
LINE
8
0
10
1106.341700
20
805.509777
30
0.0
11
1103.689181
21
805.509777
31
0.0
0
ARC
8
0
10
1103.689181
20
805.309777
30
0.0
40
0.200000
50
90.000000
51
162.810484
0
LINE
8
0
10
1103.498115
20
805.368884
30
0.0
11
1103.250634
21
804.568884
31
0.0
0
ARC
8
0
10
1103.441700
20
804.509777
30
0.0
40
0.200000
50
162.810484
51
270.000000
0
LINE
8
0
10
1103.441701
20
804.309777
30
0.0
11
1104.941700
21
804.309777
31
0.0
0
LINE
8
0
10
1104.941700
20
804.309777
30
0.0
11
1104.941700
21
802.009777
31
0.0
0
LINE
8
0
10
1104.941700
20
802.009777
30
0.0
11
1100.034335
21
802.009777
31
0.0
0
LINE
8
0
10
1100.034335
20
802.009777
30
0.0
11
1097.950105
21
802.981669
31
0.0
0
ARC
8
0
10
1097.823319
20
802.709777
30
0.0
40
0.300000
50
65.000000
51
175.000000
0
LINE
8
0
10
1097.524461
20
802.735924
30
0.0
11
1097.325788
21
800.465077
31
0.0
0
ARC
8
0
10
1098.023124
20
800.404068
30
0.0
40
0.700000
50
175.000000
51
230.000000
0
LINE
8
0
10
1097.573173
20
799.867837
30
0.0
11
1097.705777
21
799.756568
31
0.0
0
ARC
8
0
10
1097.834335
20
799.909777
30
0.0
40
0.200000
50
230.000000
51
350.000000
0
LINE
8
0
10
1098.031296
20
799.875047
30
0.0
11
1098.091410
21
800.215967
31
0.0
0
LINE
8
0
10
1098.091410
20
800.215967
30
0.0
11
1099.934335
21
800.709777
31
0.0
0
LINE
8
0
10
1099.934335
20
800.709777
30
0.0
11
1100.434335
21
800.709777
31
0.0
0
ARC
8
0
10
1100.434335
20
800.409777
30
0.0
40
0.300000
50
289.471221
51
90.000000
0
LINE
8
0
10
1100.534335
20
800.126934
30
0.0
11
1100.534335
21
796.392620
31
0.0
0
ARC
8
0
10
1100.434335
20
796.109777
30
0.0
40
0.300000
50
289.471221
51
70.528780
0
LINE
8
0
10
1100.534335
20
795.826934
30
0.0
11
1099.934335
21
795.826934
31
0.0
0
LINE
8
0
10
1099.934335
20
795.826934
30
0.0
11
1098.338211
21
796.797036
31
0.0
0
ARC
8
0
10
1098.234335
20
796.626128
30
0.0
40
0.200000
50
58.709351
51
180.000000
0
LINE
8
0
10
1098.034335
20
796.626128
30
0.0
11
1098.034335
21
795.554791
31
0.0
0
ARC
8
0
10
1099.034335
20
795.554791
30
0.0
40
1.000000
50
180.000000
51
238.709351
0
LINE
8
0
10
1098.514955
20
794.700247
30
0.0
11
1100.090149
21
793.742867
31
0.0
0
ARC
8
0
10
1099.934335
20
793.486504
30
0.0
40
0.300000
50
360.000000
51
58.709351
0
LINE
8
0
10
1100.234335
20
793.486504
30
0.0
11
1100.234335
21
786.710233
31
0.0
0
ARC
8
0
10
1099.234335
20
786.710233
30
0.0
40
1.000000
50
301.290649
51
360.000000
0
LINE
8
0
10
1099.753714
20
785.855690
30
0.0
11
1098.014955
21
784.798896
31
0.0
0
ARC
8
0
10
1098.534335
20
783.944353
30
0.0
40
1.000000
50
121.290649
51
180.000000
0
ARC
8
0
10
1097.094606
20
779.682535
30
0.0
40
0.800000
50
90.000000
51
165.000000
0
LINE
8
0
10
1097.094606
20
780.482535
30
0.0
11
1097.319668
21
780.482535
31
0.0
0
LINE
8
0
10
1095.783496
20
777.880369
30
0.0
11
1096.321866
21
779.889591
31
0.0
0
ARC
8
0
10
1097.319668
20
779.282535
30
0.0
40
1.200000
50
60.018361
51
90.000000
0
ARC
8
0
10
1095.300533
20
778.009778
30
0.0
40
0.500000
50
270.000000
51
345.000000
0
LINE
8
0
10
1097.919335
20
780.321958
30
0.0
11
1099.327946
21
779.509298
31
0.0
0
LINE
8
0
10
1079.634062
20
777.509778
30
0.0
11
1095.300533
21
777.509778
31
0.0
0
ARC
8
0
10
1099.427890
20
779.682535
30
0.0
40
0.200000
50
240.018361
51
270.000000
0
ARC
8
0
10
1079.634062
20
778.009778
30
0.0
40
0.500000
50
191.029108
51
270.000000
0
LINE
8
0
10
1099.427890
20
779.482535
30
0.0
11
1099.634335
21
779.482535
31
0.0
0
LINE
8
0
10
1078.009215
20
783.732685
30
0.0
11
1079.143297
21
777.914124
31
0.0
0
ARC
8
0
10
1099.634335
20
779.882535
30
0.0
40
0.400000
50
270.000000
51
360.000000
0
ARC
8
0
10
1077.000128
20
783.536006
30
0.0
40
1.028076
50
11.029108
51
90.000000
0
LINE
8
0
10
1100.034335
20
779.882535
30
0.0
11
1100.034335
21
780.309330
31
0.0
0
ARC
8
0
10
1077.000128
20
784.864082
30
0.0
40
0.300000
50
195.000000
51
270.000000
0
ARC
8
0
10
1099.834335
20
780.309330
30
0.0
40
0.200000
50
360.000000
51
60.000000
0
LINE
8
0
10
1076.246804
20
786.516415
30
0.0
11
1076.710350
21
784.786436
31
0.0
0
LINE
8
0
10
1099.934335
20
780.482535
30
0.0
11
1099.934335
21
780.857535
31
0.0
0
ARC
8
0
10
1075.474063
20
786.309360
30
0.0
40
0.800000
50
15.000000
51
90.000000
0
ARC
8
0
10
1099.734335
20
780.857535
30
0.0
40
0.200000
50
360.000000
51
90.000000
0
LINE
8
0
10
1075.249001
20
787.109360
30
0.0
11
1075.474063
21
787.109360
31
0.0
0
LINE
8
0
10
1099.734335
20
781.057535
30
0.0
11
1099.622528
21
781.057535
31
0.0
0
ARC
8
0
10
1075.249001
20
785.909360
30
0.0
40
1.200000
50
90.000000
51
119.981639
0
LINE
8
0
10
1099.622528
20
781.057535
30
0.0
11
1099.537980
21
781.038785
31
0.0
0
LINE
8
0
10
1073.240724
20
786.136123
30
0.0
11
1074.649334
21
786.948783
31
0.0
0
ARC
8
0
10
1099.284335
20
781.582535
30
0.0
40
0.600000
50
64.992167
51
295.007833
0
ARC
8
0
10
1073.140779
20
786.309360
30
0.0
40
0.200000
50
270.000000
51
299.981639
0
LINE
8
0
10
1099.537980
20
782.126285
30
0.0
11
1099.622528
21
782.107535
31
0.0
0
LINE
8
0
10
1072.934335
20
786.109360
30
0.0
11
1073.140779
21
786.109360
31
0.0
0
LINE
8
0
10
1099.622528
20
782.107535
30
0.0
11
1099.734335
21
782.107535
31
0.0
0
ARC
8
0
10
1072.934335
20
786.509360
30
0.0
40
0.400000
50
180.000000
51
270.000000
0
ARC
8
0
10
1099.734335
20
782.307535
30
0.0
40
0.200000
50
270.000000
51
360.000000
0
LINE
8
0
10
1072.534335
20
786.936155
30
0.0
11
1072.534335
21
786.509360
31
0.0
0
LINE
8
0
10
1099.934335
20
782.307535
30
0.0
11
1099.934335
21
782.682535
31
0.0
0
ARC
8
0
10
1072.734335
20
786.936155
30
0.0
40
0.200000
50
120.000000
51
180.000000
0
ARC
8
0
10
1099.834335
20
782.855741
30
0.0
40
0.200000
50
300.000000
51
360.000000
0
LINE
8
0
10
1072.634335
20
787.484360
30
0.0
11
1072.634335
21
787.109360
31
0.0
0
LINE
8
0
10
1100.034335
20
782.855741
30
0.0
11
1100.034335
21
783.282535
31
0.0
0
ARC
8
0
10
1072.834335
20
787.484360
30
0.0
40
0.200000
50
90.000000
51
180.000000
0
ARC
8
0
10
1099.634335
20
783.282535
30
0.0
40
0.400000
50
360.000000
51
90.000000
0
LINE
8
0
10
1072.946141
20
787.684360
30
0.0
11
1072.834335
21
787.684360
31
0.0
0
LINE
8
0
10
1099.634335
20
783.682535
30
0.0
11
1099.427890
21
783.682535
31
0.0
0
LINE
8
0
10
1073.030689
20
787.665610
30
0.0
11
1072.946141
21
787.684360
31
0.0
0
ARC
8
0
10
1099.427890
20
783.482535
30
0.0
40
0.200000
50
90.000000
51
119.981639
0
ARC
8
0
10
1073.284335
20
788.209360
30
0.0
40
0.600000
50
244.992167
51
115.007833
0
LINE
8
0
10
1099.327946
20
783.655773
30
0.0
11
1097.919335
21
782.843113
31
0.0
0
LINE
8
0
10
1072.946141
20
788.734360
30
0.0
11
1073.030689
21
788.753110
31
0.0
0
LINE
8
0
10
1097.919335
20
782.843113
30
0.0
11
1097.696761
21
782.691644
31
0.0
0
LINE
8
0
10
1072.834335
20
788.734360
30
0.0
11
1072.946141
21
788.734360
31
0.0
0
ARC
8
0
10
1097.013357
20
784.026919
30
0.0
40
1.500000
50
253.158552
51
297.103721
0
ARC
8
0
10
1072.834335
20
788.934360
30
0.0
40
0.200000
50
180.000000
51
270.000000
0
LINE
8
0
10
1096.578770
20
782.591254
30
0.0
11
1087.082538
21
785.532078
31
0.0
0
LINE
8
0
10
1072.634335
20
789.309360
30
0.0
11
1072.634335
21
788.934360
31
0.0
0
ARC
8
0
10
1087.141703
20
785.723127
30
0.0
40
0.200000
50
180.000000
51
252.793123
0
ARC
8
0
10
1072.734335
20
789.482565
30
0.0
40
0.200000
50
180.000000
51
240.000000
0
LINE
8
0
10
1086.941703
20
785.723127
30
0.0
11
1086.941703
21
786.823439
31
0.0
0
LINE
8
0
10
1072.534335
20
789.909360
30
0.0
11
1072.534335
21
789.482565
31
0.0
0
ARC
8
0
10
1086.541703
20
786.823439
30
0.0
40
0.400000
50
360.000000
51
180.000000
0
ARC
8
0
10
1072.934335
20
789.909360
30
0.0
40
0.400000
50
90.000000
51
180.000000
0
LINE
8
0
10
1086.141703
20
786.823439
30
0.0
11
1086.141703
21
786.094746
31
0.0
0
LINE
8
0
10
1073.140779
20
790.309360
30
0.0
11
1072.934335
21
790.309360
31
0.0
0
ARC
8
0
10
1085.941703
20
786.094746
30
0.0
40
0.200000
50
252.793123
51
360.000000
0
ARC
8
0
10
1073.140779
20
790.109360
30
0.0
40
0.200000
50
60.018361
51
90.000000
0
LINE
8
0
10
1085.882538
20
785.903698
30
0.0
11
1074.885294
21
789.309360
31
0.0
0
LINE
8
0
10
1074.649334
20
789.469937
30
0.0
11
1073.240724
21
790.282597
31
0.0
0
LINE
8
0
10
1074.885294
20
789.309360
30
0.0
11
1074.649334
21
789.469937
31
0.0
0
ARC
8
0
10
1094.686672
20
778.809778
30
0.0
40
0.300000
50
270.000000
51
345.000000
0
LINE
8
0
10
1094.686672
20
778.509778
30
0.0
11
1087.641703
21
778.509778
31
0.0
0
LINE
8
0
10
1095.414163
20
780.365699
30
0.0
11
1094.976450
21
778.732132
31
0.0
0
ARC
8
0
10
1087.641703
20
779.009778
30
0.0
40
0.500000
50
180.000000
51
270.000000
0
ARC
8
0
10
1097.130297
20
779.905863
30
0.0
40
1.776673
50
143.034197
51
165.000000
0
LINE
8
0
10
1087.141703
20
779.009778
30
0.0
11
1087.141703
21
783.369891
31
0.0
0
ARC
8
0
10
1095.471046
20
781.154645
30
0.0
40
0.300000
50
323.034197
51
72.793123
0
ARC
8
0
10
1087.641703
20
783.369891
30
0.0
40
0.500000
50
72.793123
51
180.000000
0
LINE
8
0
10
1087.789614
20
783.847513
30
0.0
11
1095.559793
21
781.441218
31
0.0
0
ARC
8
0
10
1085.741703
20
779.009778
30
0.0
40
0.500000
50
270.000000
51
360.000000
0
LINE
8
0
10
1085.741703
20
778.509778
30
0.0
11
1080.293190
21
778.509778
31
0.0
0
LINE
8
0
10
1086.241703
20
783.958289
30
0.0
11
1086.241703
21
779.009778
31
0.0
0
ARC
8
0
10
1080.293190
20
778.809778
30
0.0
40
0.300000
50
191.029108
51
270.000000
0
ARC
8
0
10
1085.741703
20
783.958289
30
0.0
40
0.500000
50
360.000000
51
72.793123
0
LINE
8
0
10
1079.998731
20
778.752386
30
0.0
11
1078.990745
21
783.923993
31
0.0
0
LINE
8
0
10
1077.630314
20
786.993677
30
0.0
11
1085.889614
21
784.435911
31
0.0
0
ARC
8
0
10
1077.000128
20
783.536006
30
0.0
40
2.028076
50
11.029108
51
74.026525
0
ARC
8
0
10
1077.541568
20
786.707104
30
0.0
40
0.300000
50
72.793123
51
195.000000
0
LINE
8
0
10
1077.558239
20
785.485776
30
0.0
11
1077.251790
21
786.629459
31
0.0
0
ARC
8
0
10
1074.063806
20
795.554791
30
0.0
40
1.000000
50
301.290649
51
360.000000
0
LINE
8
0
10
1075.063806
20
795.554791
30
0.0
11
1075.063806
21
796.626127
31
0.0
0
ARC
8
0
10
1074.863806
20
796.626127
30
0.0
40
0.200000
50
360.000000
51
121.290649
0
LINE
8
0
10
1074.759930
20
796.797036
30
0.0
11
1073.163806
21
795.826934
31
0.0
0
LINE
8
0
10
1073.163806
20
795.826934
30
0.0
11
1072.563806
21
795.826934
31
0.0
0
ARC
8
0
10
1072.663806
20
796.109777
30
0.0
40
0.300000
50
109.471220
51
250.528779
0
LINE
8
0
10
1072.563806
20
796.392620
30
0.0
11
1072.563806
21
800.126934
31
0.0
0
ARC
8
0
10
1072.663806
20
800.409777
30
0.0
40
0.300000
50
90.000000
51
250.528779
0
LINE
8
0
10
1072.663806
20
800.709777
30
0.0
11
1072.970621
21
800.709777
31
0.0
0
LINE
8
0
10
1072.970621
20
800.709777
30
0.0
11
1075.016311
21
800.161636
31
0.0
0
LINE
8
0
10
1075.016311
20
800.161636
30
0.0
11
1075.066844
21
799.875047
31
0.0
0
ARC
8
0
10
1075.263806
20
799.909777
30
0.0
40
0.200000
50
190.000000
51
310.000000
0
LINE
8
0
10
1075.392363
20
799.756568
30
0.0
11
1075.524968
21
799.867837
31
0.0
0
ARC
8
0
10
1075.075017
20
800.404068
30
0.0
40
0.700000
50
310.000000
51
5.000000
0
LINE
8
0
10
1075.772353
20
800.465077
30
0.0
11
1075.573680
21
802.735924
31
0.0
0
ARC
8
0
10
1075.274821
20
802.709777
30
0.0
40
0.300000
50
5.000000
51
115.000000
0
LINE
8
0
10
1075.148036
20
802.981669
30
0.0
11
1073.063806
21
802.009777
31
0.0
0
LINE
8
0
10
1073.063806
20
802.009777
30
0.0
11
1069.959050
21
802.009777
31
0.0
0
LINE
8
0
10
1069.959050
20
802.009777
30
0.0
11
1066.341701
21
802.009777
31
0.0
0
ARC
8
0
10
1066.341701
20
801.409777
30
0.0
40
0.600000
50
90.000000
51
180.000000
0
LINE
8
0
10
1065.741701
20
801.409777
30
0.0
11
1065.741701
21
800.809777
31
0.0
0
LINE
8
0
10
1065.741701
20
800.809777
30
0.0
11
1061.941701
21
800.809777
31
0.0
0
LINE
8
0
10
1061.941701
20
800.809777
30
0.0
11
1061.441701
21
815.109777
31
0.0
0
LINE
8
0
10
1061.441701
20
815.109777
30
0.0
11
1061.441701
21
820.609777
31
0.0
0
ARC
8
0
10
1061.741701
20
820.609777
30
0.0
40
0.300000
50
90.000000
51
180.000000
0
LINE
8
0
10
1061.741701
20
820.909777
30
0.0
11
1062.941701
21
820.909777
31
0.0
0
LINE
8
0
10
1062.941701
20
820.909777
30
0.0
11
1062.941701
21
820.109777
31
0.0
0
ARC
8
0
10
1063.341701
20
820.109777
30
0.0
40
0.400000
50
180.000000
51
360.000000
0
LINE
8
0
10
1063.741701
20
820.109777
30
0.0
11
1063.741701
21
821.263134
31
0.0
0
ARC
8
0
10
1063.441701
20
821.263134
30
0.0
40
0.300000
50
360.000000
51
72.916369
0
LINE
8
0
10
1063.529832
20
821.549897
30
0.0
11
1061.801674
21
822.081008
31
0.0
0
ARC
8
0
10
1061.889804
20
822.367771
30
0.0
40
0.300000
50
167.551927
51
252.916369
0
ARC
8
0
10
1068.041702
20
821.009776
30
0.0
40
6.600000
50
91.819228
51
167.551927
0
ARC
8
0
10
1067.841701
20
827.306601
30
0.0
40
0.300000
50
360.000000
51
90.000000
0
LINE
8
0
10
1068.141701
20
827.306601
30
0.0
11
1068.141701
21
823.109777
31
0.0
0
ARC
8
0
10
1069.141701
20
823.109777
30
0.0
40
1.000000
50
180.000000
51
270.000000
0
LINE
8
0
10
1069.141701
20
822.109777
30
0.0
11
1070.541701
21
822.109777
31
0.0
0
ARC
8
0
10
1070.541701
20
823.109777
30
0.0
40
1.000000
50
270.000000
51
360.000000
0
LINE
8
0
10
1071.541701
20
823.109777
30
0.0
11
1071.541701
21
823.909454
31
0.0
0
ARC
8
0
10
1071.141701
20
823.909455
30
0.0
40
0.400000
50
360.000000
51
180.000000
0
LINE
8
0
10
1070.741701
20
823.909455
30
0.0
11
1070.741701
21
823.309777
31
0.0
0
LINE
8
0
10
1070.741701
20
823.309777
30
0.0
11
1069.241701
21
823.309777
31
0.0
0
LINE
8
0
10
1069.241701
20
823.309777
30
0.0
11
1069.241701
21
827.809776
31
0.0
0
LINE
8
0
10
1069.241701
20
827.809776
30
0.0
11
1070.741701
21
827.809776
31
0.0
0
LINE
8
0
10
1070.741701
20
827.809776
30
0.0
11
1070.741701
21
827.210098
31
0.0
0
ARC
8
0
10
1071.141701
20
827.210098
30
0.0
40
0.400000
50
180.000000
51
360.000000
0
LINE
8
0
10
1071.541701
20
827.210099
30
0.0
11
1071.541701
21
829.009776
31
0.0
0
LINE
8
0
10
1071.541701
20
829.009776
30
0.0
11
1068.041702
21
829.009776
31
0.0
0
ARC
8
0
10
1068.041702
20
821.009776
30
0.0
40
8.000000
50
90.000000
51
180.000000
0
LINE
8
0
10
1060.041702
20
821.009776
30
0.0
11
1060.041702
21
793.309777
31
0.0
0
ARC
8
0
10
1060.341702
20
793.309777
30
0.0
40
0.300000
50
180.000000
51
270.000000
0
LINE
8
0
10
1060.341702
20
793.009777
30
0.0
11
1060.977716
21
793.009777
31
0.0
0
ARC
8
0
10
1060.977716
20
793.309777
30
0.0
40
0.300000
50
270.000000
51
352.694371
0
LINE
8
0
10
1061.275281
20
793.271628
30
0.0
11
1061.434015
21
794.509777
31
0.0
0
LINE
8
0
10
1061.434015
20
794.509777
30
0.0
11
1064.541702
21
794.509777
31
0.0
0
LINE
8
0
10
1064.541702
20
794.509777
30
0.0
11
1064.541702
21
784.309772
31
0.0
0
ARC
8
0
10
1064.841702
20
784.309773
30
0.0
40
0.300000
50
180.000000
51
270.000000
0
LINE
8
0
10
1064.841702
20
784.009773
30
0.0
11
1065.174056
21
784.009773
31
0.0
0
ARC
8
0
10
1065.174056
20
784.309773
30
0.0
40
0.300000
50
270.000000
51
349.999967
0
LINE
8
0
10
1065.469498
20
784.257678
30
0.0
11
1065.565617
21
784.802791
31
0.0
0
LINE
8
0
10
1065.565617
20
784.802791
30
0.0
11
1071.041703
21
784.802791
31
0.0
0
LINE
8
0
10
1071.041703
20
784.802791
30
0.0
11
1071.086316
21
784.549778
31
0.0
0
ARC
8
0
10
1071.578719
20
784.636603
30
0.0
40
0.500000
50
190.000033
51
270.000000
0
LINE
8
0
10
1071.578719
20
784.136603
30
0.0
11
1073.063806
21
784.136603
31
0.0
0
LINE
8
0
10
1073.063806
20
784.136603
30
0.0
11
1075.148036
21
783.164710
31
0.0
0
ARC
8
0
10
1075.274821
20
783.436603
30
0.0
40
0.300000
50
245.000000
51
355.000000
0
LINE
8
0
10
1075.573680
20
783.410456
30
0.0
11
1075.772353
21
785.681303
31
0.0
0
ARC
8
0
10
1075.075017
20
785.742312
30
0.0
40
0.700000
50
355.000000
51
50.000000
0
LINE
8
0
10
1075.524968
20
786.278543
30
0.0
11
1075.392363
21
786.389812
31
0.0
0
ARC
8
0
10
1075.263806
20
786.236603
30
0.0
40
0.200000
50
50.000000
51
170.000000
0
LINE
8
0
10
1075.066844
20
786.271332
30
0.0
11
1075.016311
21
785.984744
31
0.0
0
LINE
8
0
10
1075.016311
20
785.984744
30
0.0
11
1072.970621
21
785.436603
31
0.0
0
LINE
8
0
10
1072.970621
20
785.436603
30
0.0
11
1072.663806
21
785.436603
31
0.0
0
ARC
8
0
10
1072.663806
20
785.736603
30
0.0
40
0.300000
50
109.471221
51
270.000000
0
LINE
8
0
10
1072.563806
20
786.019445
30
0.0
11
1072.563806
21
789.753760
31
0.0
0
ARC
8
0
10
1072.663806
20
790.036603
30
0.0
40
0.300000
50
109.471221
51
250.528780
0
LINE
8
0
10
1072.563806
20
790.319445
30
0.0
11
1073.163806
21
790.319445
31
0.0
0
LINE
8
0
10
1073.163806
20
790.319445
30
0.0
11
1074.759930
21
789.349343
31
0.0
0
ARC
8
0
10
1074.863806
20
789.520252
30
0.0
40
0.200000
50
238.709351
51
360.000000
0
LINE
8
0
10
1075.063806
20
789.520252
30
0.0
11
1075.063806
21
790.591589
31
0.0
0
ARC
8
0
10
1074.063806
20
790.591589
30
0.0
40
1.000000
50
360.000000
51
58.709351
0
LINE
8
0
10
1074.583185
20
791.446132
30
0.0
11
1073.322323
21
792.212467
31
0.0
0
ARC
8
0
10
1073.841703
20
793.067011
30
0.0
40
1.000000
50
180.000000
51
238.709351
0
ARC
8
0
10
1073.841703
20
793.079369
30
0.0
40
1.000000
50
121.290649
51
180.000000
0
LINE
8
0
10
1073.322323
20
793.933913
30
0.0
11
1074.583185
21
794.700247
31
0.0
0
ARC
8
0
10
1066.541701
20
787.802791
30
0.0
40
0.500000
50
360.000000
51
90.000000
0
LINE
8
0
10
1066.541701
20
788.302791
30
0.0
11
1066.041702
21
788.302791
31
0.0
0
LINE
8
0
10
1066.041702
20
788.302791
30
0.0
11
1066.041702
21
794.009777
31
0.0
0
LINE
8
0
10
1066.041702
20
794.009777
30
0.0
11
1066.541701
21
794.009777
31
0.0
0
ARC
8
0
10
1066.541701
20
794.509777
30
0.0
40
0.500000
50
270.000000
51
360.000000
0
LINE
8
0
10
1067.041701
20
794.509777
30
0.0
11
1067.041701
21
795.509777
31
0.0
0
ARC
8
0
10
1066.541701
20
795.509777
30
0.0
40
0.500000
50
360.000000
51
90.000000
0
LINE
8
0
10
1066.541701
20
796.009777
30
0.0
11
1061.541702
21
796.009777
31
0.0
0
LINE
8
0
10
1061.541702
20
796.009777
30
0.0
11
1061.541702
21
799.309777
31
0.0
0
LINE
8
0
10
1061.541702
20
799.309777
30
0.0
11
1066.541099
21
799.309777
31
0.0
0
ARC
8
0
10
1066.541099
20
799.809777
30
0.0
40
0.500000
50
270.000000
51
360.000000
0
LINE
8
0
10
1067.041099
20
799.809777
30
0.0
11
1067.041099
21
800.509777
31
0.0
0
LINE
8
0
10
1067.041099
20
800.509777
30
0.0
11
1071.041703
21
800.509777
31
0.0
0
LINE
8
0
10
1071.041703
20
800.509777
30
0.0
11
1071.041703
21
786.302791
31
0.0
0
LINE
8
0
10
1071.041703
20
786.302791
30
0.0
11
1067.041701
21
786.302791
31
0.0
0
LINE
8
0
10
1067.041701
20
786.302791
30
0.0
11
1067.041701
21
787.802791
31
0.0
0
ATTDEF
8
0
10
1060.041702
20
760.009778
30
0.0
40
3.5
1

3

2
DESC:Anta vetro infilare spazio vetro 42 mm
70
0
0
ATTDEF
8
0
10
1060.041702
20
760.009778
30
0.0
40
3.5
1

3

2
DENS:1.552000
70
0
0
ATTDEF
8
0
10
1060.041702
20
760.009778
30
0.0
40
3.5
1

3

2
TDEV:0.000000
70
0
0
ATTDEF
8
0
10
1060.041702
20
760.009778
30
0.0
40
3.5
1

3

2
TDEV2:0.000000
70
0
0
ATTDEF
8
0
10
1060.041702
20
760.009778
30
0.0
40
3.5
1

3

2
TDEV3:0.000000
70
0
0
ATTDEF
8
0
10
1060.041702
20
760.009778
30
0.0
40
3.5
1

3

2
TDEV4:0.000000
70
0
0
ATTDEF
8
0
10
1060.041702
20
760.009778
30
0.0
40
3.5
1

3

2
TDEV5:0.000000
70
0
0
ATTDEF
8
0
10
1060.041702
20
760.009778
30
0.0
40
3.5
1

3

2
FRONT_VIEW
70
0
0
ATTDEF
8
0
10
1060.041702
20
760.009778
30
0.0
40
3.5
1

3

2
BL01:6500.000000,,1
70
0
0
ATTDEF
8
0
10
1060.041702
20
760.009778
30
0.0
40
3.5
1

3

2
OPTI:500.000000,1,0,3000.000000,6500.000000,500.000000,0,0.000000,0
70
0
0
ATTDEF
8
0
10
1060.041702
20
760.009778
30
0.0
40
3.5
1

3

2
PANE_WIDTH:0.000000
70
0
0
ATTDEF
8
0
10
1060.041702
20
760.009778
30
0.0
40
3.5
1

3

2
GLASS_MIN:0.000000
70
0
0
ATTDEF
8
0
10
1060.041702
20
760.009778
30
0.0
40
3.5
1

3

2
GLASS_MAX:0.000000
70
0
0
ATTDEF
8
0
10
1060.041702
20
760.009778
30
0.0
40
3.5
1

3

2
JX:0.000000
70
0
0
ATTDEF
8
0
10
1060.041702
20
760.009778
30
0.0
40
3.5
1

3

2
WX:0.000000
70
0
0
ATTDEF
8
0
10
1060.041702
20
760.009778
30
0.0
40
3.5
1

3

2
JY:0.000000
70
0
0
ATTDEF
8
0
10
1060.041702
20
760.009778
30
0.0
40
3.5
1

3

2
WY:0.000000
70
0
0
ATTDEF
8
0
10
1113.541701
20
829.009776
30
0.0
40
3.5
1

3

2
VC_START
70
0
0
ATTDEF
8
0
10
1125.541700
20
760.009778
30
0.0
40
3.5
1

3

2
VC_END
70
0
0
ATTDEF
8
0
10
1060.041702
20
760.009778
30
0.0
40
3.5
1

3

2
FP_LCS_ORIG
70
0
0
ATTDEF
8
0
10
1070.041702
20
760.009778
30
0.0
40
3.5
1

3

2
FP_LCS_HOT
70
0
0
ATTDEF
8
0
10
1060.041702
20
770.009778
30
0.0
40
3.5
1

3

2
FP_LCS_INTERN
70
0
0
ENDSEC
0
EOF
