0
SECTION
2
ENTITIES
0
LINE
8
0
10
631.074681
20
302.144352
30
0.0
11
631.074681
21
309.930238
31
0.0
0
ARC
8
0
10
630.774681
20
309.930238
30
0.0
40
0.300000
50
360.000000
51
90.000000
0
LINE
8
0
10
630.774681
20
310.230238
30
0.0
11
620.567550
21
310.230238
31
0.0
0
ARC
8
0
10
620.567550
20
308.730238
30
0.0
40
1.500000
50
90.000000
51
120.000000
0
LINE
8
0
10
619.817550
20
310.029277
30
0.0
11
619.126396
21
309.630238
31
0.0
0
LINE
8
0
10
619.126396
20
309.630238
30
0.0
11
618.134863
21
309.057777
31
0.0
0
ARC
8
0
10
618.033575
20
309.230238
30
0.0
40
0.200000
50
270.000000
51
300.000000
0
LINE
8
0
10
618.033575
20
309.030238
30
0.0
11
617.869697
21
309.030238
31
0.0
0
ARC
8
0
10
617.869697
20
309.430238
30
0.0
40
0.400000
50
180.000000
51
270.000000
0
LINE
8
0
10
617.469697
20
309.430238
30
0.0
11
617.469697
21
310.062881
31
0.0
0
LINE
8
0
10
617.469697
20
310.062881
30
0.0
11
617.558228
21
310.564968
31
0.0
0
ARC
8
0
10
617.755190
20
310.530238
30
0.0
40
0.200000
50
90.000000
51
170.000000
0
LINE
8
0
10
617.755190
20
310.730238
30
0.0
11
617.859142
21
310.730238
31
0.0
0
ARC
8
0
10
617.859142
20
310.530238
30
0.0
40
0.200000
50
58.997281
51
90.000000
0
ARC
8
0
10
618.219697
20
311.130238
30
0.0
40
0.500000
50
238.997281
51
270.000000
0
ARC
8
0
10
618.219697
20
311.130238
30
0.0
40
0.500000
50
270.000000
51
90.000000
0
ARC
8
0
10
618.219697
20
311.130238
30
0.0
40
0.500000
50
90.000000
51
121.002719
0
ARC
8
0
10
617.859142
20
311.730238
30
0.0
40
0.200000
50
270.000000
51
301.002719
0
LINE
8
0
10
617.859142
20
311.530238
30
0.0
11
617.756538
21
311.530238
31
0.0
0
ARC
8
0
10
617.756538
20
311.730238
30
0.0
40
0.200000
50
190.000000
51
270.000000
0
LINE
8
0
10
617.559576
20
311.695509
30
0.0
11
617.469697
21
312.205238
31
0.0
0
LINE
8
0
10
617.469697
20
312.205238
30
0.0
11
617.469697
21
312.830238
31
0.0
0
ARC
8
0
10
617.869697
20
312.830238
30
0.0
40
0.400000
50
90.000000
51
180.000000
0
LINE
8
0
10
617.869697
20
313.230238
30
0.0
11
618.033575
21
313.230238
31
0.0
0
ARC
8
0
10
618.033575
20
313.030238
30
0.0
40
0.200000
50
60.000000
51
90.000000
0
LINE
8
0
10
618.133575
20
313.203443
30
0.0
11
619.126396
21
312.630238
31
0.0
0
LINE
8
0
10
619.126396
20
312.630238
30
0.0
11
619.928998
21
312.166856
31
0.0
0
ARC
8
0
10
620.438861
20
313.049965
30
0.0
40
1.019726
50
240.000000
51
270.000000
0
LINE
8
0
10
620.438861
20
312.030238
30
0.0
11
620.710783
21
312.030238
31
0.0
0
ARC
8
0
10
620.739139
20
312.328895
30
0.0
40
0.300000
50
264.576381
51
345.000000
0
LINE
8
0
10
621.028917
20
312.251250
30
0.0
11
621.615877
21
313.941815
31
0.0
0
ARC
8
0
10
622.581803
20
313.682996
30
0.0
40
1.000000
50
102.009303
51
165.000000
0
ARC
8
0
10
622.269697
20
315.150166
30
0.0
40
0.500000
50
282.009303
51
360.000000
0
LINE
8
0
10
622.769697
20
315.150166
30
0.0
11
622.769697
21
318.182996
31
0.0
0
ARC
8
0
10
623.269697
20
318.182996
30
0.0
40
0.500000
50
90.000000
51
180.000000
0
LINE
8
0
10
623.269697
20
318.682996
30
0.0
11
624.648476
21
318.682996
31
0.0
0
ARC
8
0
10
624.648476
20
318.382996
30
0.0
40
0.300000
50
17.189516
51
90.000000
0
LINE
8
0
10
624.935075
20
318.471656
30
0.0
11
625.160763
21
317.742102
31
0.0
0
LINE
8
0
10
625.169697
20
317.682996
30
0.0
11
625.160763
21
317.742102
31
0.0
0
ARC
8
0
10
624.969697
20
317.682996
30
0.0
40
0.200000
50
270.000000
51
360.000000
0
LINE
8
0
10
624.969697
20
317.482996
30
0.0
11
624.069697
21
317.482996
31
0.0
0
ARC
8
0
10
624.069697
20
317.182996
30
0.0
40
0.300000
50
90.000000
51
180.000000
0
LINE
8
0
10
623.769697
20
317.182996
30
0.0
11
623.769697
21
314.982996
31
0.0
0
ARC
8
0
10
624.069697
20
314.982996
30
0.0
40
0.300000
50
180.000000
51
270.000000
0
LINE
8
0
10
624.069697
20
314.682996
30
0.0
11
630.769697
21
314.682996
31
0.0
0
ARC
8
0
10
630.769697
20
314.982996
30
0.0
40
0.300000
50
270.000000
51
360.000000
0
LINE
8
0
10
631.069697
20
314.982996
30
0.0
11
631.069697
21
317.182996
31
0.0
0
ARC
8
0
10
630.769697
20
317.182996
30
0.0
40
0.300000
50
360.000000
51
90.000000
0
LINE
8
0
10
630.769697
20
317.482996
30
0.0
11
629.869697
21
317.482996
31
0.0
0
ARC
8
0
10
629.869697
20
317.682996
30
0.0
40
0.200000
50
180.000000
51
270.000000
0
LINE
8
0
10
629.678631
20
317.742102
30
0.0
11
629.669697
21
317.682996
31
0.0
0
LINE
8
0
10
629.678631
20
317.742102
30
0.0
11
629.904319
21
318.471656
31
0.0
0
ARC
8
0
10
630.190918
20
318.382996
30
0.0
40
0.300000
50
90.000000
51
162.810484
0
LINE
8
0
10
630.190918
20
318.682996
30
0.0
11
632.748476
21
318.682996
31
0.0
0
ARC
8
0
10
632.748476
20
318.382996
30
0.0
40
0.300000
50
17.189516
51
90.000000
0
LINE
8
0
10
633.035075
20
318.471656
30
0.0
11
633.260764
21
317.742102
31
0.0
0
LINE
8
0
10
633.269697
20
317.682996
30
0.0
11
633.260764
21
317.742102
31
0.0
0
ARC
8
0
10
633.069697
20
317.682996
30
0.0
40
0.200000
50
270.000000
51
360.000000
0
LINE
8
0
10
633.069697
20
317.482996
30
0.0
11
632.169697
21
317.482996
31
0.0
0
ARC
8
0
10
632.169697
20
317.182996
30
0.0
40
0.300000
50
90.000000
51
180.000000
0
LINE
8
0
10
631.869697
20
317.182996
30
0.0
11
631.869697
21
314.982996
31
0.0
0
ARC
8
0
10
632.169697
20
314.982996
30
0.0
40
0.300000
50
180.000000
51
270.000000
0
LINE
8
0
10
632.169697
20
314.682996
30
0.0
11
638.869697
21
314.682996
31
0.0
0
ARC
8
0
10
638.869697
20
314.982996
30
0.0
40
0.300000
50
270.000000
51
360.000000
0
LINE
8
0
10
639.169697
20
314.982996
30
0.0
11
639.169697
21
317.182996
31
0.0
0
ARC
8
0
10
638.869697
20
317.182996
30
0.0
40
0.300000
50
360.000000
51
90.000000
0
LINE
8
0
10
638.869697
20
317.482996
30
0.0
11
637.969697
21
317.482996
31
0.0
0
ARC
8
0
10
637.969697
20
317.682996
30
0.0
40
0.200000
50
180.000000
51
270.000000
0
LINE
8
0
10
637.778631
20
317.742102
30
0.0
11
637.769697
21
317.682996
31
0.0
0
LINE
8
0
10
637.778631
20
317.742102
30
0.0
11
638.004319
21
318.471656
31
0.0
0
ARC
8
0
10
638.290918
20
318.382996
30
0.0
40
0.300000
50
90.000000
51
162.810484
0
LINE
8
0
10
638.290918
20
318.682996
30
0.0
11
639.669697
21
318.682996
31
0.0
0
ARC
8
0
10
639.669697
20
318.182996
30
0.0
40
0.500000
50
360.000000
51
90.000000
0
LINE
8
0
10
640.169697
20
318.182996
30
0.0
11
640.169697
21
315.150166
31
0.0
0
ARC
8
0
10
640.669697
20
315.150166
30
0.0
40
0.500000
50
180.000000
51
257.990697
0
ARC
8
0
10
640.357591
20
313.682996
30
0.0
40
1.000000
50
15.000000
51
77.990697
0
LINE
8
0
10
641.323517
20
313.941815
30
0.0
11
641.910477
21
312.251250
31
0.0
0
ARC
8
0
10
642.200255
20
312.328895
30
0.0
40
0.300000
50
195.000000
51
275.423619
0
LINE
8
0
10
642.228611
20
312.030238
30
0.0
11
642.500533
21
312.030238
31
0.0
0
ARC
8
0
10
642.500533
20
313.049965
30
0.0
40
1.019726
50
270.000000
51
300.000000
0
LINE
8
0
10
643.010396
20
312.166856
30
0.0
11
644.805819
21
313.203443
31
0.0
0
ARC
8
0
10
644.905819
20
313.030238
30
0.0
40
0.200000
50
90.000000
51
120.000000
0
LINE
8
0
10
644.905819
20
313.230238
30
0.0
11
645.069697
21
313.230238
31
0.0
0
ARC
8
0
10
645.069697
20
312.830238
30
0.0
40
0.400000
50
360.000000
51
90.000000
0
LINE
8
0
10
645.469697
20
312.830238
30
0.0
11
645.469697
21
312.205238
31
0.0
0
LINE
8
0
10
645.469697
20
312.205238
30
0.0
11
645.379818
21
311.695509
31
0.0
0
ARC
8
0
10
645.182856
20
311.730238
30
0.0
40
0.200000
50
270.000000
51
350.000000
0
LINE
8
0
10
645.182856
20
311.530238
30
0.0
11
645.080252
21
311.530238
31
0.0
0
ARC
8
0
10
645.080252
20
311.730238
30
0.0
40
0.200000
50
238.997281
51
270.000000
0
ARC
8
0
10
644.719697
20
311.130238
30
0.0
40
0.500000
50
58.997281
51
90.000000
0
ARC
8
0
10
644.719697
20
311.130238
30
0.0
40
0.500000
50
90.000000
51
180.000000
0
ARC
8
0
10
644.719697
20
311.130238
30
0.0
40
0.500000
50
180.000000
51
270.000000
0
ARC
8
0
10
644.719697
20
311.130238
30
0.0
40
0.500000
50
270.000000
51
301.002719
0
ARC
8
0
10
645.080252
20
310.530238
30
0.0
40
0.200000
50
90.000000
51
121.002719
0
LINE
8
0
10
645.080252
20
310.730238
30
0.0
11
645.184204
21
310.730238
31
0.0
0
ARC
8
0
10
645.184204
20
310.530238
30
0.0
40
0.200000
50
10.000000
51
90.000000
0
LINE
8
0
10
645.381166
20
310.564968
30
0.0
11
645.469697
21
310.062881
31
0.0
0
LINE
8
0
10
645.469697
20
310.062881
30
0.0
11
645.469697
21
309.430238
31
0.0
0
ARC
8
0
10
645.069697
20
309.430238
30
0.0
40
0.400000
50
270.000000
51
360.000000
0
LINE
8
0
10
645.069697
20
309.030238
30
0.0
11
644.905819
21
309.030238
31
0.0
0
ARC
8
0
10
644.905819
20
309.230238
30
0.0
40
0.200000
50
240.000000
51
270.000000
0
LINE
8
0
10
644.804531
20
309.057777
30
0.0
11
643.121844
21
310.029277
31
0.0
0
ARC
8
0
10
642.371844
20
308.730238
30
0.0
40
1.500000
50
60.000000
51
90.000000
0
LINE
8
0
10
642.371844
20
310.230238
30
0.0
11
632.174681
21
310.230238
31
0.0
0
ARC
8
0
10
632.174681
20
309.930238
30
0.0
40
0.300000
50
90.000000
51
180.000000
0
LINE
8
0
10
631.874681
20
309.930238
30
0.0
11
631.874681
21
302.144352
31
0.0
0
ARC
8
0
10
631.474681
20
302.144352
30
0.0
40
0.400000
50
180.000000
51
360.000000
0
ARC
8
0
10
622.735268
20
313.482996
30
0.0
40
0.500000
50
90.000000
51
165.000000
0
LINE
8
0
10
622.252305
20
313.612405
30
0.0
11
621.755501
21
312.258305
31
0.0
0
ARC
8
0
10
622.238463
20
312.128895
30
0.0
40
0.500000
50
165.000000
51
270.000000
0
LINE
8
0
10
622.238463
20
311.628895
30
0.0
11
630.819745
21
311.630270
31
0.0
0
ARC
8
0
10
630.819697
20
311.930270
30
0.0
40
0.300000
50
270.000000
51
360.000000
0
LINE
8
0
10
631.119697
20
311.930270
30
0.0
11
631.119697
21
313.682996
31
0.0
0
ARC
8
0
10
630.819697
20
313.682996
30
0.0
40
0.300000
50
360.000000
51
90.000000
0
LINE
8
0
10
630.819697
20
313.982996
30
0.0
11
622.735268
21
313.982996
31
0.0
0
ARC
8
0
10
632.119697
20
313.682996
30
0.0
40
0.300000
50
90.000000
51
180.000000
0
LINE
8
0
10
631.819697
20
313.682996
30
0.0
11
631.819697
21
311.930270
31
0.0
0
ARC
8
0
10
632.119697
20
311.930270
30
0.0
40
0.300000
50
180.000000
51
270.000000
0
LINE
8
0
10
632.119649
20
311.630270
30
0.0
11
640.700931
21
311.628895
31
0.0
0
ARC
8
0
10
640.700931
20
312.128895
30
0.0
40
0.500000
50
270.000000
51
15.000000
0
LINE
8
0
10
641.183893
20
312.258305
30
0.0
11
640.687089
21
313.612405
31
0.0
0
ARC
8
0
10
640.204126
20
313.482996
30
0.0
40
0.500000
50
15.000000
51
90.000000
0
LINE
8
0
10
640.204126
20
313.982996
30
0.0
11
632.119697
21
313.982996
31
0.0
0
LINE
8
0
10
645.384692
20
296.983017
30
0.0
11
645.077866
21
296.983017
31
0.0
0
LINE
8
0
10
645.077866
20
296.983017
30
0.0
11
643.032176
21
297.531158
31
0.0
0
LINE
8
0
10
643.032176
20
297.531158
30
0.0
11
642.981643
21
297.817746
31
0.0
0
ARC
8
0
10
642.784681
20
297.783017
30
0.0
40
0.200000
50
10.000000
51
130.000000
0
LINE
8
0
10
642.656124
20
297.936226
30
0.0
11
642.523519
21
297.824957
31
0.0
0
ARC
8
0
10
642.973470
20
297.288726
30
0.0
40
0.700000
50
130.000000
51
185.000000
0
LINE
8
0
10
642.276134
20
297.227717
30
0.0
11
642.474808
21
294.956870
31
0.0
0
ARC
8
0
10
642.773666
20
294.983017
30
0.0
40
0.300000
50
185.000000
51
295.000000
0
LINE
8
0
10
642.900451
20
294.711124
30
0.0
11
644.984681
21
295.683017
31
0.0
0
LINE
8
0
10
644.984681
20
295.683017
30
0.0
11
645.482049
21
295.683017
31
0.0
0
LINE
8
0
10
645.482049
20
295.683017
30
0.0
11
645.482049
21
292.670806
31
0.0
0
ARC
8
0
10
645.982049
20
292.670806
30
0.0
40
0.500000
50
180.000000
51
270.000000
0
LINE
8
0
10
645.982049
20
292.170806
30
0.0
11
646.482048
21
292.170806
31
0.0
0
ARC
8
0
10
646.482048
20
292.670806
30
0.0
40
0.500000
50
270.000000
51
360.000000
0
LINE
8
0
10
646.982048
20
292.670806
30
0.0
11
646.982048
21
295.170805
31
0.0
0
ARC
8
0
10
648.982048
20
295.170805
30
0.0
40
2.000000
50
90.000000
51
180.000000
0
LINE
8
0
10
648.982048
20
297.170805
30
0.0
11
655.782042
21
297.170805
31
0.0
0
LINE
8
0
10
655.782042
20
297.170805
30
0.0
11
656.082042
21
297.470805
31
0.0
0
LINE
8
0
10
656.082042
20
297.470805
30
0.0
11
656.382042
21
297.170805
31
0.0
0
LINE
8
0
10
656.382042
20
297.170805
30
0.0
11
670.282042
21
297.170805
31
0.0
0
LINE
8
0
10
670.282042
20
297.170805
30
0.0
11
670.282042
21
295.370811
31
0.0
0
LINE
8
0
10
670.282042
20
295.370811
30
0.0
11
669.282042
21
295.370811
31
0.0
0
ARC
8
0
10
669.282042
20
294.370811
30
0.0
40
1.000000
50
90.000000
51
180.000000
0
LINE
8
0
10
668.282042
20
294.370811
30
0.0
11
668.282042
21
292.570806
31
0.0
0
ARC
8
0
10
668.682042
20
292.570806
30
0.0
40
0.400000
50
180.000000
51
360.000000
0
LINE
8
0
10
669.082042
20
292.570806
30
0.0
11
669.082042
21
293.970811
31
0.0
0
LINE
8
0
10
669.082042
20
293.970811
30
0.0
11
670.282042
21
293.970811
31
0.0
0
LINE
8
0
10
670.282042
20
293.970811
30
0.0
11
670.282042
21
276.870811
31
0.0
0
LINE
8
0
10
670.282042
20
276.870811
30
0.0
11
669.082042
21
276.870811
31
0.0
0
LINE
8
0
10
669.082042
20
276.870811
30
0.0
11
669.082042
21
277.570811
31
0.0
0
ARC
8
0
10
668.782042
20
277.570811
30
0.0
40
0.300000
50
360.000000
51
149.660797
0
LINE
8
0
10
668.523127
20
277.722346
30
0.0
11
667.818992
21
276.519254
31
0.0
0
ARC
8
0
10
668.682042
20
276.014135
30
0.0
40
1.000000
50
149.660797
51
180.000000
0
LINE
8
0
10
667.682042
20
276.014135
30
0.0
11
667.682042
21
275.271132
31
0.0
0
ARC
8
0
10
668.082042
20
275.271132
30
0.0
40
0.400000
50
180.000000
51
270.000000
0
ARC
8
0
10
668.082043
20
275.271131
30
0.0
40
0.399999
50
270.000000
51
360.000000
0
LINE
8
0
10
668.482042
20
275.271132
30
0.0
11
668.482042
21
275.870811
31
0.0
0
LINE
8
0
10
668.482042
20
275.870811
30
0.0
11
670.682042
21
275.870811
31
0.0
0
LINE
8
0
10
670.682042
20
275.870811
30
0.0
11
670.682042
21
273.170811
31
0.0
0
ARC
8
0
10
668.882042
20
273.170811
30
0.0
40
1.800000
50
270.000000
51
360.000000
0
LINE
8
0
10
668.882042
20
271.370811
30
0.0
11
668.482042
21
271.370811
31
0.0
0
LINE
8
0
10
668.482042
20
271.370811
30
0.0
11
668.482042
21
271.970489
31
0.0
0
ARC
8
0
10
668.082042
20
271.970489
30
0.0
40
0.400000
50
360.000000
51
90.000000
0
ARC
8
0
10
668.082043
20
271.970488
30
0.0
40
0.400001
50
90.000000
51
180.000000
0
LINE
8
0
10
667.682042
20
271.970489
30
0.0
11
667.682042
21
270.170811
31
0.0
0
LINE
8
0
10
667.682042
20
270.170811
30
0.0
11
668.882042
21
270.170811
31
0.0
0
ARC
8
0
10
668.882042
20
273.170811
30
0.0
40
3.000000
50
270.000000
51
360.000000
0
LINE
8
0
10
671.882042
20
273.170811
30
0.0
11
671.882042
21
320.170800
31
0.0
0
LINE
8
0
10
671.882042
20
320.170800
30
0.0
11
668.326974
21
320.170800
31
0.0
0
LINE
8
0
10
668.326974
20
320.170800
30
0.0
11
667.892266
21
318.548446
31
0.0
0
ARC
8
0
10
668.182042
20
318.470799
30
0.0
40
0.299999
50
164.999785
51
270.000000
0
LINE
8
0
10
668.182043
20
318.170801
30
0.0
11
670.382043
21
318.170801
31
0.0
0
LINE
8
0
10
670.382043
20
318.170801
30
0.0
11
670.382043
21
315.170801
31
0.0
0
LINE
8
0
10
670.382043
20
315.170801
30
0.0
11
651.882047
21
315.170801
31
0.0
0
LINE
8
0
10
651.882047
20
315.170801
30
0.0
11
651.882047
21
318.170801
31
0.0
0
LINE
8
0
10
651.882047
20
318.170801
30
0.0
11
653.582046
21
318.170801
31
0.0
0
ARC
8
0
10
653.582046
20
318.470801
30
0.0
40
0.300000
50
270.000000
51
14.999856
0
LINE
8
0
10
653.871824
20
318.548446
30
0.0
11
653.437116
21
320.170800
31
0.0
0
LINE
8
0
10
653.437116
20
320.170800
30
0.0
11
650.582047
21
320.170800
31
0.0
0
ARC
8
0
10
650.582047
20
319.970800
30
0.0
40
0.200000
50
90.000000
51
180.000000
0
LINE
8
0
10
650.382047
20
319.970800
30
0.0
11
650.382047
21
318.683012
31
0.0
0
LINE
8
0
10
650.382047
20
318.683012
30
0.0
11
648.482047
21
318.683012
31
0.0
0
LINE
8
0
10
648.482047
20
318.683012
30
0.0
11
648.190972
21
317.742092
31
0.0
0
LINE
8
0
10
648.190972
20
317.742092
30
0.0
11
648.184855
21
317.649617
31
0.0
0
LINE
8
0
10
648.184855
20
317.649617
30
0.0
11
648.221079
21
317.564312
31
0.0
0
ARC
8
0
10
648.382047
20
317.683012
30
0.0
40
0.200000
50
216.405532
51
270.000000
0
LINE
8
0
10
648.382038
20
317.483012
30
0.0
11
650.382047
21
317.483012
31
0.0
0
LINE
8
0
10
650.382047
20
317.483012
30
0.0
11
650.382047
21
315.183012
31
0.0
0
LINE
8
0
10
650.382047
20
315.183012
30
0.0
11
644.984681
21
315.183012
31
0.0
0
LINE
8
0
10
644.984681
20
315.183012
30
0.0
11
642.900451
21
316.154904
31
0.0
0
ARC
8
0
10
642.773666
20
315.883012
30
0.0
40
0.300000
50
65.000000
51
175.000000
0
LINE
8
0
10
642.474808
20
315.909159
30
0.0
11
642.276134
21
313.638312
31
0.0
0
ARC
8
0
10
642.973470
20
313.577302
30
0.0
40
0.700000
50
175.000000
51
230.000000
0
LINE
8
0
10
642.523519
20
313.041071
30
0.0
11
642.656124
21
312.929803
31
0.0
0
ARC
8
0
10
642.784681
20
313.083012
30
0.0
40
0.200000
50
230.000000
51
350.000000
0
LINE
8
0
10
642.981643
20
313.048282
30
0.0
11
643.032176
21
313.334871
31
0.0
0
LINE
8
0
10
643.032176
20
313.334871
30
0.0
11
645.077866
21
313.883012
31
0.0
0
LINE
8
0
10
645.077866
20
313.883012
30
0.0
11
645.384681
21
313.883012
31
0.0
0
ARC
8
0
10
645.384681
20
313.583012
30
0.0
40
0.300000
50
289.471221
51
90.000000
0
LINE
8
0
10
645.484681
20
313.300169
30
0.0
11
645.484681
21
309.565855
31
0.0
0
ARC
8
0
10
645.384681
20
309.283012
30
0.0
40
0.300000
50
289.471221
51
70.528780
0
LINE
8
0
10
645.484681
20
309.000169
30
0.0
11
644.884681
21
309.000169
31
0.0
0
LINE
8
0
10
644.884681
20
309.000169
30
0.0
11
643.288557
21
309.970271
31
0.0
0
ARC
8
0
10
643.184681
20
309.799362
30
0.0
40
0.200000
50
58.709351
51
180.000000
0
LINE
8
0
10
642.984681
20
309.799362
30
0.0
11
642.984681
21
308.658176
31
0.0
0
ARC
8
0
10
644.484681
20
308.658176
30
0.0
40
1.500000
50
180.000000
51
238.709351
0
LINE
8
0
10
643.705612
20
307.376360
30
0.0
11
644.711428
21
306.765040
31
0.0
0
ARC
8
0
10
644.192048
20
305.910496
30
0.0
40
1.000000
50
360.000000
51
58.709351
0
LINE
8
0
10
645.192048
20
305.910496
30
0.0
11
645.192048
21
304.955533
31
0.0
0
ARC
8
0
10
644.192048
20
304.955533
30
0.0
40
1.000000
50
301.290649
51
360.000000
0
LINE
8
0
10
644.711428
20
304.100989
30
0.0
11
643.705612
21
303.489668
31
0.0
0
ARC
8
0
10
644.484681
20
302.207853
30
0.0
40
1.500000
50
121.290649
51
180.000000
0
LINE
8
0
10
642.984681
20
302.207853
30
0.0
11
642.984681
21
301.066666
31
0.0
0
ARC
8
0
10
643.184681
20
301.066666
30
0.0
40
0.200000
50
180.000000
51
301.290649
0
LINE
8
0
10
643.288557
20
300.895758
30
0.0
11
644.884681
21
301.865860
31
0.0
0
LINE
8
0
10
644.884681
20
301.865860
30
0.0
11
645.484681
21
301.865860
31
0.0
0
ARC
8
0
10
645.384681
20
301.583017
30
0.0
40
0.300000
50
289.471220
51
70.528779
0
LINE
8
0
10
645.484681
20
301.300174
30
0.0
11
645.484681
21
297.565860
31
0.0
0
ARC
8
0
10
645.384681
20
297.283017
30
0.0
40
0.300000
50
270.000000
51
70.528779
0
LINE
8
0
10
670.482043
20
313.670802
30
0.0
11
670.482043
21
298.670805
31
0.0
0
LINE
8
0
10
670.482043
20
298.670805
30
0.0
11
646.982048
21
298.670805
31
0.0
0
LINE
8
0
10
646.982048
20
298.670805
30
0.0
11
646.982048
21
313.670802
31
0.0
0
LINE
8
0
10
646.982048
20
313.670802
30
0.0
11
670.482043
21
313.670802
31
0.0
0
LINE
8
0
10
611.682299
20
300.083012
30
0.0
11
611.382301
21
300.083012
31
0.0
0
LINE
8
0
10
611.382301
20
300.083012
30
0.0
11
611.382301
21
310.283012
31
0.0
0
LINE
8
0
10
611.382301
20
310.283012
30
0.0
11
611.682299
21
310.283012
31
0.0
0
LINE
8
0
10
611.682299
20
310.283012
30
0.0
11
611.682299
21
311.883012
31
0.0
0
LINE
8
0
10
611.682299
20
311.883012
30
0.0
11
611.382301
21
311.883012
31
0.0
0
LINE
8
0
10
611.382301
20
311.883012
30
0.0
11
611.382301
21
313.683012
31
0.0
0
LINE
8
0
10
611.382301
20
313.683012
30
0.0
11
612.882299
21
313.683012
31
0.0
0
LINE
8
0
10
612.882299
20
313.683012
30
0.0
11
612.882299
21
312.583012
31
0.0
0
ARC
8
0
10
613.182299
20
312.583012
30
0.0
40
0.300000
50
180.000000
51
270.000000
0
LINE
8
0
10
613.182299
20
312.283012
30
0.0
11
614.182299
21
312.283012
31
0.0
0
ARC
8
0
10
614.182299
20
312.583012
30
0.0
40
0.300000
50
270.000000
51
360.000000
0
LINE
8
0
10
614.482299
20
312.583012
30
0.0
11
614.482299
21
313.683012
31
0.0
0
LINE
8
0
10
614.482299
20
313.683012
30
0.0
11
615.682299
21
313.683012
31
0.0
0
LINE
8
0
10
615.682299
20
313.683012
30
0.0
11
615.682299
21
298.083012
31
0.0
0
LINE
8
0
10
615.682299
20
298.083012
30
0.0
11
611.682299
21
298.083012
31
0.0
0
LINE
8
0
10
611.682299
20
298.083012
30
0.0
11
611.682299
21
300.083012
31
0.0
0
ARC
8
0
10
612.982301
20
333.283012
30
0.0
40
0.400000
50
180.000000
51
360.000000
0
LINE
8
0
10
613.382301
20
333.283012
30
0.0
11
613.382301
21
337.083008
31
0.0
0
ARC
8
0
10
612.982301
20
337.083008
30
0.0
40
0.400000
50
360.000000
51
180.000000
0
LINE
8
0
10
612.582301
20
337.083008
30
0.0
11
612.582301
21
335.283012
31
0.0
0
LINE
8
0
10
612.582301
20
335.283012
30
0.0
11
611.082301
21
335.283012
31
0.0
0
LINE
8
0
10
611.082301
20
335.283012
30
0.0
11
611.082301
21
340.983007
31
0.0
0
LINE
8
0
10
611.082301
20
340.983007
30
0.0
11
612.582301
21
340.983007
31
0.0
0
LINE
8
0
10
612.582301
20
340.983007
30
0.0
11
612.582301
21
340.383007
31
0.0
0
ARC
8
0
10
612.982301
20
340.383007
30
0.0
40
0.400000
50
180.000000
51
360.000000
0
LINE
8
0
10
613.382301
20
340.383007
30
0.0
11
613.382301
21
342.183007
31
0.0
0
LINE
8
0
10
613.382301
20
342.183007
30
0.0
11
609.882302
21
342.183007
31
0.0
0
LINE
8
0
10
609.882302
20
342.183007
30
0.0
11
609.882302
21
292.183017
31
0.0
0
LINE
8
0
10
609.882302
20
292.183017
30
0.0
11
610.882302
21
292.183017
31
0.0
0
LINE
8
0
10
610.882302
20
292.183017
30
0.0
11
611.382302
21
293.183017
31
0.0
0
LINE
8
0
10
611.382302
20
293.183017
30
0.0
11
611.382302
21
293.683017
31
0.0
0
LINE
8
0
10
611.382302
20
293.683017
30
0.0
11
610.882302
21
293.683017
31
0.0
0
LINE
8
0
10
610.882302
20
293.683017
30
0.0
11
611.076135
21
296.122614
31
0.0
0
ARC
8
0
10
611.574565
20
296.083012
30
0.0
40
0.500000
50
90.000000
51
175.457209
0
LINE
8
0
10
611.574565
20
296.583012
30
0.0
11
614.790035
21
296.583012
31
0.0
0
ARC
8
0
10
614.790035
20
296.083012
30
0.0
40
0.500000
50
4.542791
51
90.000000
0
LINE
8
0
10
615.288464
20
296.122614
30
0.0
11
615.482298
21
293.683017
31
0.0
0
LINE
8
0
10
615.482298
20
293.683017
30
0.0
11
614.982298
21
293.683017
31
0.0
0
LINE
8
0
10
614.982298
20
293.683017
30
0.0
11
614.982298
21
293.183017
31
0.0
0
LINE
8
0
10
614.982298
20
293.183017
30
0.0
11
615.482298
21
292.183017
31
0.0
0
LINE
8
0
10
615.482298
20
292.183017
30
0.0
11
616.482298
21
292.183017
31
0.0
0
LINE
8
0
10
616.482298
20
292.183017
30
0.0
11
616.482298
21
295.683017
31
0.0
0
LINE
8
0
10
616.482298
20
295.683017
30
0.0
11
617.982298
21
295.683017
31
0.0
0
LINE
8
0
10
617.982298
20
295.683017
30
0.0
11
619.457709
21
294.995021
31
0.0
0
LINE
8
0
10
619.457709
20
294.995021
30
0.0
11
620.066528
21
294.711124
31
0.0
0
ARC
8
0
10
620.193313
20
294.983017
30
0.0
40
0.300000
50
245.000000
51
355.000000
0
LINE
8
0
10
620.492171
20
294.956870
30
0.0
11
620.690845
21
297.227717
31
0.0
0
ARC
8
0
10
619.993508
20
297.288726
30
0.0
40
0.700000
50
355.000000
51
50.000000
0
LINE
8
0
10
620.443460
20
297.824957
30
0.0
11
620.310855
21
297.936226
31
0.0
0
ARC
8
0
10
620.182298
20
297.783017
30
0.0
40
0.200000
50
50.000000
51
170.000000
0
LINE
8
0
10
619.985336
20
297.817746
30
0.0
11
619.934803
21
297.531158
31
0.0
0
LINE
8
0
10
619.934803
20
297.531158
30
0.0
11
617.889113
21
296.983017
31
0.0
0
LINE
8
0
10
617.889113
20
296.983017
30
0.0
11
617.582298
21
296.983017
31
0.0
0
ARC
8
0
10
617.582298
20
297.283017
30
0.0
40
0.300000
50
109.471221
51
270.000000
0
LINE
8
0
10
617.482298
20
297.565860
30
0.0
11
617.482298
21
301.300174
31
0.0
0
ARC
8
0
10
617.582298
20
301.583017
30
0.0
40
0.300000
50
109.471221
51
250.528780
0
LINE
8
0
10
617.482298
20
301.865860
30
0.0
11
618.082298
21
301.865860
31
0.0
0
LINE
8
0
10
618.082298
20
301.865860
30
0.0
11
619.678422
21
300.895758
31
0.0
0
ARC
8
0
10
619.782298
20
301.066666
30
0.0
40
0.200000
50
238.709351
51
360.000000
0
LINE
8
0
10
619.982298
20
301.066666
30
0.0
11
619.982298
21
302.207853
31
0.0
0
ARC
8
0
10
618.482298
20
302.207853
30
0.0
40
1.500000
50
360.000000
51
58.709351
0
LINE
8
0
10
619.261367
20
303.489668
30
0.0
11
617.962918
21
304.278847
31
0.0
0
ARC
8
0
10
618.482298
20
305.133391
30
0.0
40
1.000000
50
180.000000
51
238.709351
0
LINE
8
0
10
617.482298
20
305.133391
30
0.0
11
617.482298
21
305.732638
31
0.0
0
ARC
8
0
10
618.482298
20
305.732638
30
0.0
40
1.000000
50
121.290649
51
180.000000
0
LINE
8
0
10
617.962918
20
306.587181
30
0.0
11
619.261367
21
307.376360
31
0.0
0
ARC
8
0
10
618.482298
20
308.658176
30
0.0
40
1.500000
50
301.290649
51
360.000000
0
LINE
8
0
10
619.982298
20
308.658176
30
0.0
11
619.982298
21
309.799362
31
0.0
0
ARC
8
0
10
619.782298
20
309.799362
30
0.0
40
0.200000
50
360.000000
51
121.290649
0
LINE
8
0
10
619.678422
20
309.970271
30
0.0
11
618.082298
21
309.000169
31
0.0
0
LINE
8
0
10
618.082298
20
309.000169
30
0.0
11
617.482298
21
309.000169
31
0.0
0
ARC
8
0
10
617.582298
20
309.283012
30
0.0
40
0.300000
50
109.471220
51
250.528779
0
LINE
8
0
10
617.482298
20
309.565855
30
0.0
11
617.482298
21
313.300169
31
0.0
0
ARC
8
0
10
617.582298
20
313.583012
30
0.0
40
0.300000
50
90.000000
51
250.528779
0
LINE
8
0
10
617.582298
20
313.883012
30
0.0
11
617.889113
21
313.883012
31
0.0
0
LINE
8
0
10
617.889113
20
313.883012
30
0.0
11
619.934803
21
313.334871
31
0.0
0
LINE
8
0
10
619.934803
20
313.334871
30
0.0
11
619.985336
21
313.048282
31
0.0
0
ARC
8
0
10
620.182298
20
313.083012
30
0.0
40
0.200000
50
190.000000
51
310.000000
0
LINE
8
0
10
620.310855
20
312.929803
30
0.0
11
620.443460
21
313.041071
31
0.0
0
ARC
8
0
10
619.993508
20
313.577302
30
0.0
40
0.700000
50
310.000000
51
5.000000
0
LINE
8
0
10
620.690845
20
313.638312
30
0.0
11
620.492171
21
315.909159
31
0.0
0
ARC
8
0
10
620.193313
20
315.883012
30
0.0
40
0.300000
50
5.000000
51
115.000000
0
LINE
8
0
10
620.066528
20
316.154904
30
0.0
11
617.982298
21
315.183012
31
0.0
0
LINE
8
0
10
617.982298
20
315.183012
30
0.0
11
611.482302
21
315.183012
31
0.0
0
LINE
8
0
10
611.482302
20
315.183012
30
0.0
11
611.282302
21
334.083012
31
0.0
0
LINE
8
0
10
611.282302
20
334.083012
30
0.0
11
612.582301
21
334.083012
31
0.0
0
LINE
8
0
10
612.582301
20
334.083012
30
0.0
11
612.582301
21
333.283012
31
0.0
0
LINE
8
0
10
643.817983
20
301.235774
30
0.0
11
644.809515
21
301.808236
31
0.0
0
ARC
8
0
10
644.910803
20
301.635774
30
0.0
40
0.200000
50
90.000000
51
120.000000
0
LINE
8
0
10
644.910803
20
301.835774
30
0.0
11
645.074681
21
301.835774
31
0.0
0
ARC
8
0
10
645.074681
20
301.435774
30
0.0
40
0.400000
50
360.000000
51
90.000000
0
LINE
8
0
10
645.474681
20
301.435774
30
0.0
11
645.474681
21
300.803131
31
0.0
0
LINE
8
0
10
645.474681
20
300.803131
30
0.0
11
645.386150
21
300.301045
31
0.0
0
ARC
8
0
10
645.189188
20
300.335774
30
0.0
40
0.200000
50
270.000000
51
350.000000
0
LINE
8
0
10
645.189188
20
300.135774
30
0.0
11
645.085236
21
300.135774
31
0.0
0
ARC
8
0
10
645.085236
20
300.335774
30
0.0
40
0.200000
50
238.997281
51
270.000000
0
ARC
8
0
10
644.724681
20
299.735774
30
0.0
40
0.500000
50
58.997281
51
90.000000
0
ARC
8
0
10
644.724681
20
299.735774
30
0.0
40
0.500000
50
90.000000
51
270.000000
0
ARC
8
0
10
644.724681
20
299.735774
30
0.0
40
0.500000
50
270.000000
51
301.002719
0
ARC
8
0
10
645.085236
20
299.135774
30
0.0
40
0.200000
50
90.000000
51
121.002719
0
LINE
8
0
10
645.085236
20
299.335774
30
0.0
11
645.187841
21
299.335774
31
0.0
0
ARC
8
0
10
645.187841
20
299.135774
30
0.0
40
0.200000
50
10.000000
51
90.000000
0
LINE
8
0
10
645.384802
20
299.170504
30
0.0
11
645.474681
21
298.660774
31
0.0
0
LINE
8
0
10
645.474681
20
298.660774
30
0.0
11
645.474681
21
298.035774
31
0.0
0
ARC
8
0
10
645.074681
20
298.035774
30
0.0
40
0.400000
50
270.000000
51
360.000000
0
LINE
8
0
10
645.074681
20
297.635774
30
0.0
11
644.910803
21
297.635774
31
0.0
0
ARC
8
0
10
644.910803
20
297.835774
30
0.0
40
0.200000
50
240.000000
51
270.000000
0
LINE
8
0
10
644.810803
20
297.662569
30
0.0
11
643.817983
21
298.235774
31
0.0
0
LINE
8
0
10
643.817983
20
298.235774
30
0.0
11
643.015380
21
298.699157
31
0.0
0
ARC
8
0
10
642.505517
20
297.816048
30
0.0
40
1.019726
50
60.000000
51
90.000000
0
LINE
8
0
10
642.505517
20
298.835774
30
0.0
11
642.233595
21
298.835774
31
0.0
0
ARC
8
0
10
642.205239
20
298.537117
30
0.0
40
0.300000
50
84.576381
51
165.000000
0
LINE
8
0
10
641.915461
20
298.614763
30
0.0
11
641.328501
21
296.424198
31
0.0
0
ARC
8
0
10
640.362575
20
296.683017
30
0.0
40
1.000000
50
270.000000
51
345.000000
0
LINE
8
0
10
640.362576
20
295.683017
30
0.0
11
622.586787
21
295.683017
31
0.0
0
ARC
8
0
10
622.586787
20
296.683017
30
0.0
40
1.000000
50
195.000000
51
270.000000
0
LINE
8
0
10
621.620861
20
296.424198
30
0.0
11
621.033901
21
298.614763
31
0.0
0
ARC
8
0
10
620.744123
20
298.537117
30
0.0
40
0.300000
50
15.000000
51
95.423619
0
LINE
8
0
10
620.715768
20
298.835774
30
0.0
11
620.443845
21
298.835774
31
0.0
0
ARC
8
0
10
620.443845
20
297.816048
30
0.0
40
1.019726
50
90.000000
51
120.000000
0
LINE
8
0
10
619.933982
20
298.699157
30
0.0
11
618.138560
21
297.662569
31
0.0
0
ARC
8
0
10
618.038560
20
297.835774
30
0.0
40
0.200000
50
270.000000
51
300.000000
0
LINE
8
0
10
618.038560
20
297.635774
30
0.0
11
617.874681
21
297.635774
31
0.0
0
ARC
8
0
10
617.874681
20
298.035774
30
0.0
40
0.400000
50
180.000000
51
270.000000
0
LINE
8
0
10
617.474681
20
298.035774
30
0.0
11
617.474681
21
298.660774
31
0.0
0
LINE
8
0
10
617.474681
20
298.660774
30
0.0
11
617.564560
21
299.170504
31
0.0
0
ARC
8
0
10
617.761522
20
299.135774
30
0.0
40
0.200000
50
90.000000
51
170.000000
0
LINE
8
0
10
617.761522
20
299.335774
30
0.0
11
617.864126
21
299.335774
31
0.0
0
ARC
8
0
10
617.864126
20
299.135774
30
0.0
40
0.200000
50
58.997281
51
90.000000
0
ARC
8
0
10
618.224681
20
299.735774
30
0.0
40
0.500000
50
238.997281
51
270.000000
0
ARC
8
0
10
618.224681
20
299.735774
30
0.0
40
0.500000
50
270.000000
51
360.000000
0
ARC
8
0
10
618.224681
20
299.735774
30
0.0
40
0.500000
50
360.000000
51
90.000000
0
ARC
8
0
10
618.224681
20
299.735774
30
0.0
40
0.500000
50
90.000000
51
121.002719
0
ARC
8
0
10
617.864126
20
300.335774
30
0.0
40
0.200000
50
270.000000
51
301.002719
0
LINE
8
0
10
617.864126
20
300.135774
30
0.0
11
617.760174
21
300.135774
31
0.0
0
ARC
8
0
10
617.760174
20
300.335774
30
0.0
40
0.200000
50
190.000000
51
270.000000
0
LINE
8
0
10
617.563213
20
300.301045
30
0.0
11
617.474681
21
300.803131
31
0.0
0
LINE
8
0
10
617.474681
20
300.803131
30
0.0
11
617.474681
21
301.435774
31
0.0
0
ARC
8
0
10
617.874681
20
301.435774
30
0.0
40
0.400000
50
90.000000
51
180.000000
0
LINE
8
0
10
617.874681
20
301.835774
30
0.0
11
618.038560
21
301.835774
31
0.0
0
ARC
8
0
10
618.038560
20
301.635774
30
0.0
40
0.200000
50
60.000000
51
90.000000
0
LINE
8
0
10
618.139848
20
301.808236
30
0.0
11
619.822534
21
300.836736
31
0.0
0
ARC
8
0
10
620.572534
20
302.135774
30
0.0
40
1.500000
50
240.000000
51
270.000000
0
LINE
8
0
10
620.572534
20
300.635774
30
0.0
11
642.376828
21
300.635774
31
0.0
0
ARC
8
0
10
642.376828
20
302.135774
30
0.0
40
1.500000
50
270.000000
51
300.000000
0
LINE
8
0
10
643.126828
20
300.836736
30
0.0
11
643.817983
21
301.235774
31
0.0
0
LINE
8
0
10
632.324681
20
299.235774
30
0.0
11
640.705915
21
299.237117
31
0.0
0
ARC
8
0
10
640.705915
20
298.737117
30
0.0
40
0.500000
50
345.000000
51
90.000000
0
LINE
8
0
10
641.188878
20
298.607708
30
0.0
11
640.692073
21
296.753607
31
0.0
0
ARC
8
0
10
640.209110
20
296.883017
30
0.0
40
0.500000
50
270.000000
51
345.000000
0
LINE
8
0
10
640.209110
20
296.383017
30
0.0
11
632.324681
21
296.383017
31
0.0
0
ARC
8
0
10
632.324681
20
296.883017
30
0.0
40
0.500000
50
180.000000
51
270.000000
0
LINE
8
0
10
631.824681
20
296.883017
30
0.0
11
631.824681
21
298.735774
31
0.0
0
ARC
8
0
10
632.324681
20
298.735774
30
0.0
40
0.500000
50
90.000000
51
180.000000
0
LINE
8
0
10
630.624761
20
299.235774
30
0.0
11
622.243448
21
299.237117
31
0.0
0
ARC
8
0
10
622.243448
20
298.737117
30
0.0
40
0.500000
50
90.000000
51
195.000000
0
LINE
8
0
10
621.760485
20
298.607708
30
0.0
11
622.257290
21
296.753607
31
0.0
0
ARC
8
0
10
622.740252
20
296.883017
30
0.0
40
0.500000
50
195.000000
51
270.000000
0
LINE
8
0
10
622.740252
20
296.383017
30
0.0
11
630.624681
21
296.383017
31
0.0
0
ARC
8
0
10
630.624681
20
296.883017
30
0.0
40
0.500000
50
270.000000
51
360.000000
0
LINE
8
0
10
631.124681
20
296.883017
30
0.0
11
631.124681
21
298.735774
31
0.0
0
ARC
8
0
10
630.624681
20
298.735774
30
0.0
40
0.500000
50
360.000000
51
90.000000
0
ATTDEF
8
0
10
609.882302
20
270.170811
30
0.0
40
3.5
1

3

2
DESC:Telaio a Z
70
0
0
ATTDEF
8
0
10
609.882302
20
270.170811
30
0.0
40
3.5
1

3

2
DENS:1.275000
70
0
0
ATTDEF
8
0
10
609.882302
20
270.170811
30
0.0
40
3.5
1

3

2
TDEV:0.000000
70
0
0
ATTDEF
8
0
10
609.882302
20
270.170811
30
0.0
40
3.5
1

3

2
TDEV2:0.000000
70
0
0
ATTDEF
8
0
10
609.882302
20
270.170811
30
0.0
40
3.5
1

3

2
TDEV3:0.000000
70
0
0
ATTDEF
8
0
10
609.882302
20
270.170811
30
0.0
40
3.5
1

3

2
TDEV4:0.000000
70
0
0
ATTDEF
8
0
10
609.882302
20
270.170811
30
0.0
40
3.5
1

3

2
TDEV5:0.000000
70
0
0
ATTDEF
8
0
10
609.882302
20
270.170811
30
0.0
40
3.5
1

3

2
FRONT_VIEW
70
0
0
ATTDEF
8
0
10
609.882302
20
270.170811
30
0.0
40
3.5
1

3

2
BL01:6500.000000,,1
70
0
0
ATTDEF
8
0
10
609.882302
20
270.170811
30
0.0
40
3.5
1

3

2
OPTI:500.000000,1,0,3000.000000,6500.000000,500.000000,0,0.000000,0
70
0
0
ATTDEF
8
0
10
609.882302
20
270.170811
30
0.0
40
3.5
1

3

2
PANE_WIDTH:0.000000
70
0
0
ATTDEF
8
0
10
609.882302
20
270.170811
30
0.0
40
3.5
1

3

2
GLASS_MIN:0.000000
70
0
0
ATTDEF
8
0
10
609.882302
20
270.170811
30
0.0
40
3.5
1

3

2
GLASS_MAX:0.000000
70
0
0
ATTDEF
8
0
10
609.882302
20
270.170811
30
0.0
40
3.5
1

3

2
JX:0.000000
70
0
0
ATTDEF
8
0
10
609.882302
20
270.170811
30
0.0
40
3.5
1

3

2
WX:0.000000
70
0
0
ATTDEF
8
0
10
609.882302
20
270.170811
30
0.0
40
3.5
1

3

2
JY:0.000000
70
0
0
ATTDEF
8
0
10
609.882302
20
270.170811
30
0.0
40
3.5
1

3

2
WY:0.000000
70
0
0
ATTDEF
8
0
10
609.882302
20
342.183007
30
0.0
40
3.5
1

3

2
VC_START
70
0
0
ATTDEF
8
0
10
609.882302
20
292.183017
30
0.0
40
3.5
1

3

2
VC_END
70
0
0
ATTDEF
8
0
10
609.882302
20
270.170811
30
0.0
40
3.5
1

3

2
FP_LCS_ORIG
70
0
0
ATTDEF
8
0
10
619.882302
20
270.170811
30
0.0
40
3.5
1

3

2
FP_LCS_HOT
70
0
0
ATTDEF
8
0
10
609.882302
20
280.170811
30
0.0
40
3.5
1

3

2
FP_LCS_INTERN
70
0
0
ENDSEC
0
EOF
