0
SECTION
2
ENTITIES
0
ARC
8
0
10
660.234386
20
270.320483
30
0.0
40
0.500000
50
340.016898
51
90.000000
0
LINE
8
0
10
660.234386
20
270.820483
30
0.0
11
658.742916
21
270.820483
31
0.0
0
ARC
8
0
10
658.742916
20
271.320483
30
0.0
40
0.500000
50
163.559469
51
270.000000
0
ARC
8
0
10
656.201264
20
272.070486
30
0.0
40
2.150000
50
343.559469
51
259.330781
0
ARC
8
0
10
655.710647
20
269.466299
30
0.0
40
0.500000
50
306.888267
51
79.330781
0
LINE
8
0
10
656.010775
20
269.066395
30
0.0
11
655.598789
21
268.757199
31
0.0
0
ARC
8
0
10
655.298661
20
269.157102
30
0.0
40
0.500000
50
252.786347
51
306.888267
0
ARC
8
0
10
656.201264
20
272.070486
30
0.0
40
3.550000
50
245.957924
51
252.786347
0
ARC
8
0
10
654.551264
20
268.371838
30
0.0
40
0.500000
50
65.957924
51
180.000000
0
LINE
8
0
10
654.051264
20
268.371838
30
0.0
11
654.051264
21
264.918345
31
0.0
0
ARC
8
0
10
654.551264
20
264.918345
30
0.0
40
0.500000
50
180.000000
51
270.000000
0
LINE
8
0
10
654.551264
20
264.418345
30
0.0
11
658.550738
21
264.418345
31
0.0
0
ARC
8
0
10
658.550738
20
264.918345
30
0.0
40
0.500000
50
270.000000
51
360.000000
0
LINE
8
0
10
659.050738
20
264.918345
30
0.0
11
659.050738
21
265.320483
31
0.0
0
ARC
8
0
10
660.650738
20
265.320483
30
0.0
40
1.600000
50
160.016898
51
180.000000
0
LINE
8
0
10
659.147069
20
265.867272
30
0.0
11
660.704283
21
270.149612
31
0.0
0
LINE
8
0
10
654.051264
20
275.446875
30
0.0
11
654.051264
21
282.270757
31
0.0
0
ARC
8
0
10
655.050995
20
282.270757
30
0.0
40
0.999731
50
360.000000
51
180.000000
0
LINE
8
0
10
656.050726
20
282.270757
30
0.0
11
656.050726
21
280.808276
31
0.0
0
ARC
8
0
10
657.650726
20
280.808276
30
0.0
40
1.600000
50
180.000000
51
270.000000
0
LINE
8
0
10
657.650726
20
279.208276
30
0.0
11
677.050726
21
279.208276
31
0.0
0
LINE
8
0
10
677.050726
20
279.208276
30
0.0
11
677.050726
21
278.820483
31
0.0
0
ARC
8
0
10
678.150726
20
278.820483
30
0.0
40
1.100000
50
180.000000
51
270.000000
0
LINE
8
0
10
678.150726
20
277.720483
30
0.0
11
680.550737
21
277.720483
31
0.0
0
LINE
8
0
10
680.550737
20
277.720483
30
0.0
11
680.550737
21
263.420483
31
0.0
0
LINE
8
0
10
680.550737
20
263.420483
30
0.0
11
678.250737
21
263.420483
31
0.0
0
LINE
8
0
10
678.250737
20
263.420483
30
0.0
11
678.250737
21
265.320483
31
0.0
0
ARC
8
0
10
676.650737
20
265.320483
30
0.0
40
1.600000
50
360.000000
51
19.983102
0
LINE
8
0
10
678.154407
20
265.867272
30
0.0
11
676.154408
21
271.367272
31
0.0
0
ARC
8
0
10
674.650738
20
270.820483
30
0.0
40
1.600000
50
19.983102
51
90.000000
0
LINE
8
0
10
674.650738
20
272.420483
30
0.0
11
660.161063
21
272.420483
31
0.0
0
ARC
8
0
10
660.161063
20
272.920483
30
0.0
40
0.500000
50
192.115074
51
270.000000
0
ARC
8
0
10
656.201264
20
272.070486
30
0.0
40
3.550000
50
12.115074
51
118.719336
0
ARC
8
0
10
654.351264
20
275.446875
30
0.0
40
0.300000
50
180.000000
51
298.719336
0
LINE
8
0
10
651.651264
20
279.137645
30
0.0
11
650.055140
21
280.107747
31
0.0
0
ARC
8
0
10
649.951264
20
279.936838
30
0.0
40
0.200000
50
58.709351
51
180.000000
0
LINE
8
0
10
649.751264
20
279.936838
30
0.0
11
649.751264
21
278.865501
31
0.0
0
ARC
8
0
10
650.751264
20
278.865501
30
0.0
40
1.000000
50
180.000000
51
238.709351
0
LINE
8
0
10
650.231885
20
278.010958
30
0.0
11
651.770644
21
277.075721
31
0.0
0
ARC
8
0
10
651.251264
20
276.221178
30
0.0
40
1.000000
50
360.000000
51
58.709351
0
LINE
8
0
10
652.251264
20
276.221178
30
0.0
11
652.251264
21
271.919795
31
0.0
0
ARC
8
0
10
651.251264
20
271.919795
30
0.0
40
1.000000
50
301.290649
51
360.000000
0
LINE
8
0
10
651.770644
20
271.065251
30
0.0
11
650.231885
21
270.130015
31
0.0
0
ARC
8
0
10
650.751264
20
269.275471
30
0.0
40
1.000000
50
121.290649
51
180.000000
0
LINE
8
0
10
649.751264
20
269.275471
30
0.0
11
649.751264
21
268.204135
31
0.0
0
ARC
8
0
10
649.951264
20
268.204135
30
0.0
40
0.200000
50
180.000000
51
301.290649
0
LINE
8
0
10
650.055140
20
268.033226
30
0.0
11
651.651264
21
269.003328
31
0.0
0
LINE
8
0
10
651.651264
20
269.003328
30
0.0
11
652.251264
21
269.003328
31
0.0
0
ARC
8
0
10
652.151264
20
268.720485
30
0.0
40
0.300000
50
289.471220
51
70.528779
0
LINE
8
0
10
652.251264
20
268.437643
30
0.0
11
652.251264
21
264.703328
31
0.0
0
ARC
8
0
10
652.151264
20
264.420485
30
0.0
40
0.300000
50
270.000000
51
70.528779
0
LINE
8
0
10
652.151264
20
264.120485
30
0.0
11
651.844450
21
264.120485
31
0.0
0
LINE
8
0
10
651.844450
20
264.120485
30
0.0
11
649.798759
21
264.668626
31
0.0
0
LINE
8
0
10
649.798759
20
264.668626
30
0.0
11
649.748226
21
264.955215
31
0.0
0
ARC
8
0
10
649.551264
20
264.920485
30
0.0
40
0.200000
50
10.000000
51
130.000000
0
LINE
8
0
10
649.422707
20
265.073694
30
0.0
11
649.290102
21
264.962426
31
0.0
0
ARC
8
0
10
649.740054
20
264.426195
30
0.0
40
0.700000
50
130.000000
51
185.000000
0
LINE
8
0
10
649.042717
20
264.365186
30
0.0
11
649.241391
21
262.094339
31
0.0
0
ARC
8
0
10
649.540249
20
262.120485
30
0.0
40
0.300000
50
185.000000
51
295.000000
0
LINE
8
0
10
649.667035
20
261.848593
30
0.0
11
651.746674
21
262.818345
31
0.0
0
LINE
8
0
10
651.746674
20
262.818345
30
0.0
11
656.751264
21
262.818345
31
0.0
0
LINE
8
0
10
656.751264
20
262.818345
30
0.0
11
656.751264
21
262.320483
31
0.0
0
ARC
8
0
10
657.251264
20
262.320483
30
0.0
40
0.500000
50
180.000000
51
270.000000
0
LINE
8
0
10
657.251264
20
261.820483
30
0.0
11
660.650738
21
261.820483
31
0.0
0
LINE
8
0
10
660.650738
20
261.820483
30
0.0
11
660.650738
21
265.320483
31
0.0
0
LINE
8
0
10
660.650738
20
265.320483
30
0.0
11
662.650738
21
270.820483
31
0.0
0
LINE
8
0
10
662.650738
20
270.820483
30
0.0
11
674.650738
21
270.820483
31
0.0
0
LINE
8
0
10
674.650738
20
270.820483
30
0.0
11
676.650737
21
265.320483
31
0.0
0
LINE
8
0
10
676.650737
20
265.320483
30
0.0
11
676.650737
21
261.820483
31
0.0
0
LINE
8
0
10
676.650737
20
261.820483
30
0.0
11
682.150737
21
261.820483
31
0.0
0
LINE
8
0
10
682.150737
20
261.820483
30
0.0
11
682.150737
21
279.320483
31
0.0
0
LINE
8
0
10
682.150737
20
279.320483
30
0.0
11
679.150726
21
279.320483
31
0.0
0
ARC
8
0
10
679.150726
20
279.820483
30
0.0
40
0.500000
50
180.000000
51
270.000000
0
LINE
8
0
10
678.650726
20
279.820483
30
0.0
11
678.650726
21
290.308276
31
0.0
0
LINE
8
0
10
678.650726
20
290.308276
30
0.0
11
675.695657
21
290.308276
31
0.0
0
LINE
8
0
10
675.695657
20
290.308276
30
0.0
11
675.260949
21
288.685921
31
0.0
0
ARC
8
0
10
675.550725
20
288.608275
30
0.0
40
0.299999
50
164.999785
51
270.000000
0
LINE
8
0
10
675.550726
20
288.308276
30
0.0
11
677.250726
21
288.308277
31
0.0
0
LINE
8
0
10
677.250726
20
288.308277
30
0.0
11
677.250726
21
285.308277
31
0.0
0
LINE
8
0
10
677.250726
20
285.308277
30
0.0
11
675.650726
21
285.308277
31
0.0
0
ARC
8
0
10
675.650726
20
284.808277
30
0.0
40
0.500000
50
90.000000
51
180.000000
0
LINE
8
0
10
675.150726
20
284.808277
30
0.0
11
675.150726
21
284.308276
31
0.0
0
ARC
8
0
10
675.650726
20
284.308276
30
0.0
40
0.500000
50
180.000000
51
270.000000
0
LINE
8
0
10
675.650726
20
283.808276
30
0.0
11
677.350726
21
283.808276
31
0.0
0
LINE
8
0
10
677.350726
20
283.808276
30
0.0
11
677.350726
21
280.808276
31
0.0
0
LINE
8
0
10
677.350726
20
280.808276
30
0.0
11
668.950738
21
280.808276
31
0.0
0
LINE
8
0
10
668.950738
20
280.808276
30
0.0
11
668.650738
21
280.508276
31
0.0
0
LINE
8
0
10
668.650738
20
280.508276
30
0.0
11
668.350738
21
280.808276
31
0.0
0
LINE
8
0
10
668.350738
20
280.808276
30
0.0
11
657.650726
21
280.808276
31
0.0
0
LINE
8
0
10
657.650726
20
280.808276
30
0.0
11
657.650726
21
283.808276
31
0.0
0
LINE
8
0
10
657.650726
20
283.808276
30
0.0
11
659.650726
21
283.808276
31
0.0
0
ARC
8
0
10
659.650726
20
284.308276
30
0.0
40
0.500000
50
270.000000
51
360.000000
0
LINE
8
0
10
660.150726
20
284.308276
30
0.0
11
660.150726
21
284.808277
31
0.0
0
ARC
8
0
10
659.650726
20
284.808277
30
0.0
40
0.500000
50
360.000000
51
90.000000
0
LINE
8
0
10
659.650726
20
285.308277
30
0.0
11
658.750730
21
285.308277
31
0.0
0
LINE
8
0
10
658.750730
20
285.308277
30
0.0
11
658.750730
21
288.308277
31
0.0
0
LINE
8
0
10
658.750730
20
288.308277
30
0.0
11
660.750729
21
288.308277
31
0.0
0
ARC
8
0
10
660.750729
20
288.608277
30
0.0
40
0.300000
50
270.000000
51
14.999856
0
LINE
8
0
10
661.040507
20
288.685922
30
0.0
11
660.605799
21
290.308276
31
0.0
0
LINE
8
0
10
660.605799
20
290.308276
30
0.0
11
657.150730
21
290.308276
31
0.0
0
LINE
8
0
10
657.150730
20
290.308276
30
0.0
11
657.150730
21
288.820487
31
0.0
0
LINE
8
0
10
657.150730
20
288.820487
30
0.0
11
655.228630
21
288.820487
31
0.0
0
LINE
8
0
10
655.228630
20
288.820487
30
0.0
11
654.937555
21
287.879567
31
0.0
0
LINE
8
0
10
654.937555
20
287.879567
30
0.0
11
654.931438
21
287.787093
31
0.0
0
LINE
8
0
10
654.931438
20
287.787093
30
0.0
11
654.967663
21
287.701788
31
0.0
0
ARC
8
0
10
655.128630
20
287.820487
30
0.0
40
0.200000
50
216.405532
51
270.000000
0
LINE
8
0
10
655.128621
20
287.620487
30
0.0
11
657.150730
21
287.620487
31
0.0
0
LINE
8
0
10
657.150730
20
287.620487
30
0.0
11
657.150730
21
285.320487
31
0.0
0
LINE
8
0
10
657.150730
20
285.320487
30
0.0
11
651.751264
21
285.320487
31
0.0
0
LINE
8
0
10
651.751264
20
285.320487
30
0.0
11
649.667035
21
286.292380
31
0.0
0
ARC
8
0
10
649.540249
20
286.020487
30
0.0
40
0.300000
50
65.000000
51
175.000000
0
LINE
8
0
10
649.241391
20
286.046634
30
0.0
11
649.042717
21
283.775787
31
0.0
0
ARC
8
0
10
649.740054
20
283.714778
30
0.0
40
0.700000
50
175.000000
51
230.000000
0
LINE
8
0
10
649.290102
20
283.178547
30
0.0
11
649.422707
21
283.067278
31
0.0
0
ARC
8
0
10
649.551264
20
283.220487
30
0.0
40
0.200000
50
230.000000
51
350.000000
0
LINE
8
0
10
649.748226
20
283.185758
30
0.0
11
649.798759
21
283.472346
31
0.0
0
LINE
8
0
10
649.798759
20
283.472346
30
0.0
11
651.844450
21
284.020487
31
0.0
0
LINE
8
0
10
651.844450
20
284.020487
30
0.0
11
652.151264
21
284.020487
31
0.0
0
ARC
8
0
10
652.151264
20
283.720487
30
0.0
40
0.300000
50
289.471221
51
90.000000
0
LINE
8
0
10
652.251264
20
283.437645
30
0.0
11
652.251264
21
279.703330
31
0.0
0
ARC
8
0
10
652.151264
20
279.420487
30
0.0
40
0.300000
50
289.471221
51
70.528780
0
LINE
8
0
10
652.251264
20
279.137645
30
0.0
11
651.651264
21
279.137645
31
0.0
0
LINE
8
0
10
637.848349
20
272.281844
30
0.0
11
637.848349
21
280.067730
31
0.0
0
ARC
8
0
10
637.548349
20
280.067730
30
0.0
40
0.300000
50
360.000000
51
90.000000
0
LINE
8
0
10
637.548349
20
280.367730
30
0.0
11
627.341217
21
280.367730
31
0.0
0
ARC
8
0
10
627.341217
20
278.867730
30
0.0
40
1.500000
50
90.000000
51
120.000000
0
LINE
8
0
10
626.591217
20
280.166768
30
0.0
11
625.900063
21
279.767730
31
0.0
0
LINE
8
0
10
625.900063
20
279.767730
30
0.0
11
624.908531
21
279.195268
31
0.0
0
ARC
8
0
10
624.807243
20
279.367730
30
0.0
40
0.200000
50
270.000000
51
300.000000
0
LINE
8
0
10
624.807243
20
279.167730
30
0.0
11
624.643364
21
279.167730
31
0.0
0
ARC
8
0
10
624.643364
20
279.567730
30
0.0
40
0.400000
50
180.000000
51
270.000000
0
LINE
8
0
10
624.243364
20
279.567730
30
0.0
11
624.243364
21
280.200373
31
0.0
0
LINE
8
0
10
624.243364
20
280.200373
30
0.0
11
624.331896
21
280.702460
31
0.0
0
ARC
8
0
10
624.528857
20
280.667730
30
0.0
40
0.200000
50
90.000000
51
170.000000
0
LINE
8
0
10
624.528857
20
280.867730
30
0.0
11
624.632809
21
280.867730
31
0.0
0
ARC
8
0
10
624.632809
20
280.667730
30
0.0
40
0.200000
50
58.997281
51
90.000000
0
ARC
8
0
10
624.993364
20
281.267730
30
0.0
40
0.500000
50
238.997281
51
270.000000
0
ARC
8
0
10
624.993364
20
281.267730
30
0.0
40
0.500000
50
270.000000
51
90.000000
0
ARC
8
0
10
624.993364
20
281.267730
30
0.0
40
0.500000
50
90.000000
51
121.002719
0
ARC
8
0
10
624.632809
20
281.867730
30
0.0
40
0.200000
50
270.000000
51
301.002719
0
LINE
8
0
10
624.632809
20
281.667730
30
0.0
11
624.530205
21
281.667730
31
0.0
0
ARC
8
0
10
624.530205
20
281.867730
30
0.0
40
0.200000
50
190.000000
51
270.000000
0
LINE
8
0
10
624.333243
20
281.833000
30
0.0
11
624.243364
21
282.342730
31
0.0
0
LINE
8
0
10
624.243364
20
282.342730
30
0.0
11
624.243364
21
282.967730
31
0.0
0
ARC
8
0
10
624.643364
20
282.967730
30
0.0
40
0.400000
50
90.000000
51
180.000000
0
LINE
8
0
10
624.643364
20
283.367730
30
0.0
11
624.807243
21
283.367730
31
0.0
0
ARC
8
0
10
624.807243
20
283.167730
30
0.0
40
0.200000
50
60.000000
51
90.000000
0
LINE
8
0
10
624.907243
20
283.340935
30
0.0
11
625.900063
21
282.767730
31
0.0
0
LINE
8
0
10
625.900063
20
282.767730
30
0.0
11
626.702665
21
282.304347
31
0.0
0
ARC
8
0
10
627.212528
20
283.187456
30
0.0
40
1.019726
50
240.000000
51
270.000000
0
LINE
8
0
10
627.212528
20
282.167730
30
0.0
11
627.484451
21
282.167730
31
0.0
0
ARC
8
0
10
627.512806
20
282.466387
30
0.0
40
0.300000
50
264.576381
51
345.000000
0
LINE
8
0
10
627.802584
20
282.388741
30
0.0
11
628.389544
21
284.079306
31
0.0
0
ARC
8
0
10
629.355470
20
283.820487
30
0.0
40
1.000000
50
102.009303
51
165.000000
0
ARC
8
0
10
629.043364
20
285.287658
30
0.0
40
0.500000
50
282.009303
51
360.000000
0
LINE
8
0
10
629.543364
20
285.287658
30
0.0
11
629.543364
21
288.320487
31
0.0
0
ARC
8
0
10
630.043364
20
288.320487
30
0.0
40
0.500000
50
90.000000
51
180.000000
0
LINE
8
0
10
630.043364
20
288.820487
30
0.0
11
631.422143
21
288.820487
31
0.0
0
ARC
8
0
10
631.422143
20
288.520487
30
0.0
40
0.300000
50
17.189516
51
90.000000
0
LINE
8
0
10
631.708743
20
288.609147
30
0.0
11
631.934431
21
287.879594
31
0.0
0
LINE
8
0
10
631.943364
20
287.820487
30
0.0
11
631.934431
21
287.879594
31
0.0
0
ARC
8
0
10
631.743364
20
287.820487
30
0.0
40
0.200000
50
270.000000
51
360.000000
0
LINE
8
0
10
631.743364
20
287.620487
30
0.0
11
630.843364
21
287.620487
31
0.0
0
ARC
8
0
10
630.843364
20
287.320487
30
0.0
40
0.300000
50
90.000000
51
180.000000
0
LINE
8
0
10
630.543364
20
287.320487
30
0.0
11
630.543364
21
285.120487
31
0.0
0
ARC
8
0
10
630.843364
20
285.120487
30
0.0
40
0.300000
50
180.000000
51
270.000000
0
LINE
8
0
10
630.843364
20
284.820487
30
0.0
11
637.543364
21
284.820487
31
0.0
0
ARC
8
0
10
637.543364
20
285.120487
30
0.0
40
0.300000
50
270.000000
51
360.000000
0
LINE
8
0
10
637.843364
20
285.120487
30
0.0
11
637.843364
21
287.320487
31
0.0
0
ARC
8
0
10
637.543364
20
287.320487
30
0.0
40
0.300000
50
360.000000
51
90.000000
0
LINE
8
0
10
637.543364
20
287.620487
30
0.0
11
636.643364
21
287.620487
31
0.0
0
ARC
8
0
10
636.643364
20
287.820487
30
0.0
40
0.200000
50
180.000000
51
270.000000
0
LINE
8
0
10
636.452298
20
287.879594
30
0.0
11
636.443364
21
287.820487
31
0.0
0
LINE
8
0
10
636.452298
20
287.879594
30
0.0
11
636.677986
21
288.609147
31
0.0
0
ARC
8
0
10
636.964586
20
288.520487
30
0.0
40
0.300000
50
90.000000
51
162.810484
0
LINE
8
0
10
636.964586
20
288.820487
30
0.0
11
639.522143
21
288.820487
31
0.0
0
ARC
8
0
10
639.522143
20
288.520487
30
0.0
40
0.300000
50
17.189516
51
90.000000
0
LINE
8
0
10
639.808743
20
288.609147
30
0.0
11
640.034431
21
287.879594
31
0.0
0
LINE
8
0
10
640.043364
20
287.820487
30
0.0
11
640.034431
21
287.879594
31
0.0
0
ARC
8
0
10
639.843364
20
287.820487
30
0.0
40
0.200000
50
270.000000
51
360.000000
0
LINE
8
0
10
639.843364
20
287.620487
30
0.0
11
638.943364
21
287.620487
31
0.0
0
ARC
8
0
10
638.943364
20
287.320487
30
0.0
40
0.300000
50
90.000000
51
180.000000
0
LINE
8
0
10
638.643364
20
287.320487
30
0.0
11
638.643364
21
285.120487
31
0.0
0
ARC
8
0
10
638.943364
20
285.120487
30
0.0
40
0.300000
50
180.000000
51
270.000000
0
LINE
8
0
10
638.943364
20
284.820487
30
0.0
11
645.643364
21
284.820487
31
0.0
0
ARC
8
0
10
645.643364
20
285.120487
30
0.0
40
0.300000
50
270.000000
51
360.000000
0
LINE
8
0
10
645.943364
20
285.120487
30
0.0
11
645.943364
21
287.320487
31
0.0
0
ARC
8
0
10
645.643364
20
287.320487
30
0.0
40
0.300000
50
360.000000
51
90.000000
0
LINE
8
0
10
645.643364
20
287.620487
30
0.0
11
644.743364
21
287.620487
31
0.0
0
ARC
8
0
10
644.743364
20
287.820487
30
0.0
40
0.200000
50
180.000000
51
270.000000
0
LINE
8
0
10
644.552298
20
287.879594
30
0.0
11
644.543364
21
287.820487
31
0.0
0
LINE
8
0
10
644.552298
20
287.879594
30
0.0
11
644.777986
21
288.609147
31
0.0
0
ARC
8
0
10
645.064586
20
288.520487
30
0.0
40
0.300000
50
90.000000
51
162.810484
0
LINE
8
0
10
645.064586
20
288.820487
30
0.0
11
646.443364
21
288.820487
31
0.0
0
ARC
8
0
10
646.443364
20
288.320487
30
0.0
40
0.500000
50
360.000000
51
90.000000
0
LINE
8
0
10
646.943364
20
288.320487
30
0.0
11
646.943364
21
285.287658
31
0.0
0
ARC
8
0
10
647.443364
20
285.287658
30
0.0
40
0.500000
50
180.000000
51
257.990697
0
ARC
8
0
10
647.131259
20
283.820487
30
0.0
40
1.000000
50
15.000000
51
77.990697
0
LINE
8
0
10
648.097184
20
284.079306
30
0.0
11
648.684145
21
282.388741
31
0.0
0
ARC
8
0
10
648.973922
20
282.466387
30
0.0
40
0.300000
50
195.000000
51
275.423619
0
LINE
8
0
10
649.002278
20
282.167730
30
0.0
11
649.274200
21
282.167730
31
0.0
0
ARC
8
0
10
649.274200
20
283.187456
30
0.0
40
1.019726
50
270.000000
51
300.000000
0
LINE
8
0
10
649.784063
20
282.304347
30
0.0
11
651.579486
21
283.340935
31
0.0
0
ARC
8
0
10
651.679486
20
283.167730
30
0.0
40
0.200000
50
90.000000
51
120.000000
0
LINE
8
0
10
651.679486
20
283.367730
30
0.0
11
651.843364
21
283.367730
31
0.0
0
ARC
8
0
10
651.843364
20
282.967730
30
0.0
40
0.400000
50
360.000000
51
90.000000
0
LINE
8
0
10
652.243364
20
282.967730
30
0.0
11
652.243364
21
282.342730
31
0.0
0
LINE
8
0
10
652.243364
20
282.342730
30
0.0
11
652.153485
21
281.833000
31
0.0
0
ARC
8
0
10
651.956524
20
281.867730
30
0.0
40
0.200000
50
270.000000
51
350.000000
0
LINE
8
0
10
651.956524
20
281.667730
30
0.0
11
651.853919
21
281.667730
31
0.0
0
ARC
8
0
10
651.853919
20
281.867730
30
0.0
40
0.200000
50
238.997281
51
270.000000
0
ARC
8
0
10
651.493364
20
281.267730
30
0.0
40
0.500000
50
58.997281
51
90.000000
0
ARC
8
0
10
651.493364
20
281.267730
30
0.0
40
0.500000
50
90.000000
51
180.000000
0
ARC
8
0
10
651.493364
20
281.267730
30
0.0
40
0.500000
50
180.000000
51
270.000000
0
ARC
8
0
10
651.493364
20
281.267730
30
0.0
40
0.500000
50
270.000000
51
301.002719
0
ARC
8
0
10
651.853919
20
280.667730
30
0.0
40
0.200000
50
90.000000
51
121.002719
0
LINE
8
0
10
651.853919
20
280.867730
30
0.0
11
651.957871
21
280.867730
31
0.0
0
ARC
8
0
10
651.957871
20
280.667730
30
0.0
40
0.200000
50
10.000000
51
90.000000
0
LINE
8
0
10
652.154833
20
280.702460
30
0.0
11
652.243364
21
280.200373
31
0.0
0
LINE
8
0
10
652.243364
20
280.200373
30
0.0
11
652.243364
21
279.567730
31
0.0
0
ARC
8
0
10
651.843364
20
279.567730
30
0.0
40
0.400000
50
270.000000
51
360.000000
0
LINE
8
0
10
651.843364
20
279.167730
30
0.0
11
651.679486
21
279.167730
31
0.0
0
ARC
8
0
10
651.679486
20
279.367730
30
0.0
40
0.200000
50
240.000000
51
270.000000
0
LINE
8
0
10
651.578198
20
279.195268
30
0.0
11
649.895511
21
280.166768
31
0.0
0
ARC
8
0
10
649.145511
20
278.867730
30
0.0
40
1.500000
50
60.000000
51
90.000000
0
LINE
8
0
10
649.145511
20
280.367730
30
0.0
11
638.948349
21
280.367730
31
0.0
0
ARC
8
0
10
638.948349
20
280.067730
30
0.0
40
0.300000
50
90.000000
51
180.000000
0
LINE
8
0
10
638.648349
20
280.067730
30
0.0
11
638.648349
21
272.281844
31
0.0
0
ARC
8
0
10
638.248349
20
272.281844
30
0.0
40
0.400000
50
180.000000
51
360.000000
0
ARC
8
0
10
629.508936
20
283.620487
30
0.0
40
0.500000
50
90.000000
51
165.000000
0
LINE
8
0
10
629.025973
20
283.749897
30
0.0
11
628.529168
21
282.395796
31
0.0
0
ARC
8
0
10
629.012131
20
282.266387
30
0.0
40
0.500000
50
165.000000
51
270.000000
0
LINE
8
0
10
629.012131
20
281.766387
30
0.0
11
637.593412
21
281.767762
31
0.0
0
ARC
8
0
10
637.593364
20
282.067762
30
0.0
40
0.300000
50
270.000000
51
360.000000
0
LINE
8
0
10
637.893364
20
282.067762
30
0.0
11
637.893364
21
283.820487
31
0.0
0
ARC
8
0
10
637.593364
20
283.820487
30
0.0
40
0.300000
50
360.000000
51
90.000000
0
LINE
8
0
10
637.593364
20
284.120487
30
0.0
11
629.508936
21
284.120487
31
0.0
0
ARC
8
0
10
638.893364
20
283.820487
30
0.0
40
0.300000
50
90.000000
51
180.000000
0
LINE
8
0
10
638.593364
20
283.820487
30
0.0
11
638.593364
21
282.067762
31
0.0
0
ARC
8
0
10
638.893364
20
282.067762
30
0.0
40
0.300000
50
180.000000
51
270.000000
0
LINE
8
0
10
638.893316
20
281.767762
30
0.0
11
647.474598
21
281.766387
31
0.0
0
ARC
8
0
10
647.474598
20
282.266387
30
0.0
40
0.500000
50
270.000000
51
15.000000
0
LINE
8
0
10
647.957561
20
282.395796
30
0.0
11
647.460756
21
283.749897
31
0.0
0
ARC
8
0
10
646.977793
20
283.620487
30
0.0
40
0.500000
50
15.000000
51
90.000000
0
LINE
8
0
10
646.977793
20
284.120487
30
0.0
11
638.893364
21
284.120487
31
0.0
0
LINE
8
0
10
650.594566
20
268.343266
30
0.0
11
651.586098
21
268.915728
31
0.0
0
ARC
8
0
10
651.687386
20
268.743266
30
0.0
40
0.200000
50
90.000000
51
120.000000
0
LINE
8
0
10
651.687386
20
268.943266
30
0.0
11
651.851264
21
268.943266
31
0.0
0
ARC
8
0
10
651.851264
20
268.543266
30
0.0
40
0.400000
50
360.000000
51
90.000000
0
LINE
8
0
10
652.251264
20
268.543266
30
0.0
11
652.251264
21
267.910623
31
0.0
0
LINE
8
0
10
652.251264
20
267.910623
30
0.0
11
652.162733
21
267.408537
31
0.0
0
ARC
8
0
10
651.965771
20
267.443266
30
0.0
40
0.200000
50
270.000000
51
350.000000
0
LINE
8
0
10
651.965771
20
267.243266
30
0.0
11
651.861819
21
267.243266
31
0.0
0
ARC
8
0
10
651.861819
20
267.443266
30
0.0
40
0.200000
50
238.997281
51
270.000000
0
ARC
8
0
10
651.501264
20
266.843266
30
0.0
40
0.500000
50
58.997281
51
90.000000
0
ARC
8
0
10
651.501264
20
266.843266
30
0.0
40
0.500000
50
90.000000
51
270.000000
0
ARC
8
0
10
651.501264
20
266.843266
30
0.0
40
0.500000
50
270.000000
51
301.002719
0
ARC
8
0
10
651.861819
20
266.243266
30
0.0
40
0.200000
50
90.000000
51
121.002719
0
LINE
8
0
10
651.861819
20
266.443266
30
0.0
11
651.964424
21
266.443266
31
0.0
0
ARC
8
0
10
651.964424
20
266.243266
30
0.0
40
0.200000
50
10.000000
51
90.000000
0
LINE
8
0
10
652.161385
20
266.277996
30
0.0
11
652.251264
21
265.768266
31
0.0
0
LINE
8
0
10
652.251264
20
265.768266
30
0.0
11
652.251264
21
265.143266
31
0.0
0
ARC
8
0
10
651.851264
20
265.143266
30
0.0
40
0.400000
50
270.000000
51
360.000000
0
LINE
8
0
10
651.851264
20
264.743266
30
0.0
11
651.687386
21
264.743266
31
0.0
0
ARC
8
0
10
651.687386
20
264.943266
30
0.0
40
0.200000
50
240.000000
51
270.000000
0
LINE
8
0
10
651.587386
20
264.770061
30
0.0
11
650.594566
21
265.343266
31
0.0
0
LINE
8
0
10
650.594566
20
265.343266
30
0.0
11
649.791963
21
265.806649
31
0.0
0
ARC
8
0
10
649.282100
20
264.923540
30
0.0
40
1.019726
50
60.000000
51
90.000000
0
LINE
8
0
10
649.282100
20
265.943266
30
0.0
11
649.010178
21
265.943266
31
0.0
0
ARC
8
0
10
648.981822
20
265.644609
30
0.0
40
0.300000
50
84.576381
51
165.000000
0
LINE
8
0
10
648.692045
20
265.722255
30
0.0
11
648.105084
21
263.531690
31
0.0
0
ARC
8
0
10
647.139159
20
263.790509
30
0.0
40
1.000000
50
270.000000
51
345.000000
0
LINE
8
0
10
647.139159
20
262.790509
30
0.0
11
629.363370
21
262.790509
31
0.0
0
ARC
8
0
10
629.363370
20
263.790509
30
0.0
40
1.000000
50
195.000000
51
270.000000
0
LINE
8
0
10
628.397444
20
263.531690
30
0.0
11
627.810484
21
265.722255
31
0.0
0
ARC
8
0
10
627.520706
20
265.644609
30
0.0
40
0.300000
50
15.000000
51
95.423619
0
LINE
8
0
10
627.492351
20
265.943266
30
0.0
11
627.220428
21
265.943266
31
0.0
0
ARC
8
0
10
627.220428
20
264.923540
30
0.0
40
1.019726
50
90.000000
51
120.000000
0
LINE
8
0
10
626.710565
20
265.806649
30
0.0
11
624.915143
21
264.770061
31
0.0
0
ARC
8
0
10
624.815143
20
264.943266
30
0.0
40
0.200000
50
270.000000
51
300.000000
0
LINE
8
0
10
624.815143
20
264.743266
30
0.0
11
624.651264
21
264.743266
31
0.0
0
ARC
8
0
10
624.651264
20
265.143266
30
0.0
40
0.400000
50
180.000000
51
270.000000
0
LINE
8
0
10
624.251264
20
265.143266
30
0.0
11
624.251264
21
265.768266
31
0.0
0
LINE
8
0
10
624.251264
20
265.768266
30
0.0
11
624.341143
21
266.277996
31
0.0
0
ARC
8
0
10
624.538105
20
266.243266
30
0.0
40
0.200000
50
90.000000
51
170.000000
0
LINE
8
0
10
624.538105
20
266.443266
30
0.0
11
624.640709
21
266.443266
31
0.0
0
ARC
8
0
10
624.640709
20
266.243266
30
0.0
40
0.200000
50
58.997281
51
90.000000
0
ARC
8
0
10
625.001264
20
266.843266
30
0.0
40
0.500000
50
238.997281
51
270.000000
0
ARC
8
0
10
625.001264
20
266.843266
30
0.0
40
0.500000
50
270.000000
51
360.000000
0
ARC
8
0
10
625.001264
20
266.843266
30
0.0
40
0.500000
50
360.000000
51
90.000000
0
ARC
8
0
10
625.001264
20
266.843266
30
0.0
40
0.500000
50
90.000000
51
121.002719
0
ARC
8
0
10
624.640709
20
267.443266
30
0.0
40
0.200000
50
270.000000
51
301.002719
0
LINE
8
0
10
624.640709
20
267.243266
30
0.0
11
624.536757
21
267.243266
31
0.0
0
ARC
8
0
10
624.536757
20
267.443266
30
0.0
40
0.200000
50
190.000000
51
270.000000
0
LINE
8
0
10
624.339796
20
267.408537
30
0.0
11
624.251264
21
267.910623
31
0.0
0
LINE
8
0
10
624.251264
20
267.910623
30
0.0
11
624.251264
21
268.543266
31
0.0
0
ARC
8
0
10
624.651264
20
268.543266
30
0.0
40
0.400000
50
90.000000
51
180.000000
0
LINE
8
0
10
624.651264
20
268.943266
30
0.0
11
624.815143
21
268.943266
31
0.0
0
ARC
8
0
10
624.815143
20
268.743266
30
0.0
40
0.200000
50
60.000000
51
90.000000
0
LINE
8
0
10
624.916431
20
268.915728
30
0.0
11
626.599117
21
267.944228
31
0.0
0
ARC
8
0
10
627.349117
20
269.243266
30
0.0
40
1.500000
50
240.000000
51
270.000000
0
LINE
8
0
10
627.349117
20
267.743266
30
0.0
11
649.153411
21
267.743266
31
0.0
0
ARC
8
0
10
649.153411
20
269.243266
30
0.0
40
1.500000
50
270.000000
51
300.000000
0
LINE
8
0
10
649.903411
20
267.944228
30
0.0
11
650.594566
21
268.343266
31
0.0
0
LINE
8
0
10
639.101264
20
266.343266
30
0.0
11
647.482498
21
266.344609
31
0.0
0
ARC
8
0
10
647.482498
20
265.844609
30
0.0
40
0.500000
50
345.000000
51
90.000000
0
LINE
8
0
10
647.965461
20
265.715200
30
0.0
11
647.468656
21
263.861099
31
0.0
0
ARC
8
0
10
646.985693
20
263.990509
30
0.0
40
0.500000
50
270.000000
51
345.000000
0
LINE
8
0
10
646.985693
20
263.490509
30
0.0
11
639.101264
21
263.490509
31
0.0
0
ARC
8
0
10
639.101264
20
263.990509
30
0.0
40
0.500000
50
180.000000
51
270.000000
0
LINE
8
0
10
638.601264
20
263.990509
30
0.0
11
638.601264
21
265.843266
31
0.0
0
ARC
8
0
10
639.101264
20
265.843266
30
0.0
40
0.500000
50
90.000000
51
180.000000
0
LINE
8
0
10
637.401344
20
266.343266
30
0.0
11
629.020031
21
266.344609
31
0.0
0
ARC
8
0
10
629.020031
20
265.844609
30
0.0
40
0.500000
50
90.000000
51
195.000000
0
LINE
8
0
10
628.537068
20
265.715200
30
0.0
11
629.033873
21
263.861099
31
0.0
0
ARC
8
0
10
629.516836
20
263.990509
30
0.0
40
0.500000
50
195.000000
51
270.000000
0
LINE
8
0
10
629.516836
20
263.490509
30
0.0
11
637.401264
21
263.490509
31
0.0
0
ARC
8
0
10
637.401264
20
263.990509
30
0.0
40
0.500000
50
270.000000
51
360.000000
0
LINE
8
0
10
637.901264
20
263.990509
30
0.0
11
637.901264
21
265.843266
31
0.0
0
ARC
8
0
10
637.401264
20
265.843266
30
0.0
40
0.500000
50
360.000000
51
90.000000
0
LINE
8
0
10
620.151267
20
306.420483
30
0.0
11
620.151267
21
307.220483
31
0.0
0
ARC
8
0
10
619.751267
20
307.220483
30
0.0
40
0.400000
50
360.000000
51
180.000000
0
LINE
8
0
10
619.351267
20
307.220483
30
0.0
11
619.351267
21
306.620483
31
0.0
0
LINE
8
0
10
619.351267
20
306.620483
30
0.0
11
617.851267
21
306.620483
31
0.0
0
LINE
8
0
10
617.851267
20
306.620483
30
0.0
11
617.851267
21
311.120482
31
0.0
0
LINE
8
0
10
617.851267
20
311.120482
30
0.0
11
619.351267
21
311.120482
31
0.0
0
LINE
8
0
10
619.351267
20
311.120482
30
0.0
11
619.351267
21
310.520482
31
0.0
0
ARC
8
0
10
619.751267
20
310.520482
30
0.0
40
0.400000
50
180.000000
51
360.000000
0
LINE
8
0
10
620.151267
20
310.520482
30
0.0
11
620.151267
21
312.320482
31
0.0
0
LINE
8
0
10
620.151267
20
312.320482
30
0.0
11
617.651267
21
312.320482
31
0.0
0
ARC
8
0
10
617.651267
20
311.320482
30
0.0
40
1.000000
50
90.000000
51
180.000000
0
LINE
8
0
10
616.651267
20
311.320482
30
0.0
11
616.651267
21
252.320484
31
0.0
0
ARC
8
0
10
617.651267
20
252.320484
30
0.0
40
1.000000
50
180.000000
51
270.000000
0
LINE
8
0
10
617.651267
20
251.320484
30
0.0
11
620.151267
21
251.320484
31
0.0
0
LINE
8
0
10
620.151267
20
251.320484
30
0.0
11
620.151267
21
253.120484
31
0.0
0
ARC
8
0
10
619.751267
20
253.120484
30
0.0
40
0.400000
50
360.000000
51
180.000000
0
LINE
8
0
10
619.351267
20
253.120484
30
0.0
11
619.351267
21
252.520484
31
0.0
0
LINE
8
0
10
619.351267
20
252.520484
30
0.0
11
617.851267
21
252.520484
31
0.0
0
LINE
8
0
10
617.851267
20
252.520484
30
0.0
11
617.851267
21
258.196070
31
0.0
0
LINE
8
0
10
617.851267
20
258.196070
30
0.0
11
619.351267
21
258.196070
31
0.0
0
LINE
8
0
10
619.351267
20
258.196070
30
0.0
11
619.351267
21
256.420483
31
0.0
0
ARC
8
0
10
619.751267
20
256.420483
30
0.0
40
0.400000
50
180.000000
51
360.000000
0
LINE
8
0
10
620.151267
20
256.420483
30
0.0
11
620.151267
21
258.196070
31
0.0
0
LINE
8
0
10
620.151267
20
258.196070
30
0.0
11
622.751264
21
258.196070
31
0.0
0
LINE
8
0
10
622.751264
20
258.196070
30
0.0
11
623.151264
21
255.027471
31
0.0
0
ARC
8
0
10
623.651264
20
255.027471
30
0.0
40
0.500000
50
180.000000
51
360.000000
0
LINE
8
0
10
624.151264
20
255.027471
30
0.0
11
624.151264
21
262.818345
31
0.0
0
LINE
8
0
10
624.151264
20
262.818345
30
0.0
11
624.755855
21
262.818345
31
0.0
0
LINE
8
0
10
624.755855
20
262.818345
30
0.0
11
626.835494
21
261.848593
31
0.0
0
ARC
8
0
10
626.962280
20
262.120485
30
0.0
40
0.300000
50
245.000000
51
355.000000
0
LINE
8
0
10
627.261138
20
262.094339
30
0.0
11
627.459811
21
264.365186
31
0.0
0
ARC
8
0
10
626.762475
20
264.426195
30
0.0
40
0.700000
50
355.000000
51
50.000000
0
LINE
8
0
10
627.212426
20
264.962426
30
0.0
11
627.079822
21
265.073694
31
0.0
0
ARC
8
0
10
626.951264
20
264.920485
30
0.0
40
0.200000
50
50.000000
51
170.000000
0
LINE
8
0
10
626.754303
20
264.955215
30
0.0
11
626.703769
21
264.668626
31
0.0
0
LINE
8
0
10
626.703769
20
264.668626
30
0.0
11
624.658079
21
264.120485
31
0.0
0
LINE
8
0
10
624.658079
20
264.120485
30
0.0
11
624.351264
21
264.120485
31
0.0
0
ARC
8
0
10
624.351264
20
264.420485
30
0.0
40
0.300000
50
109.471221
51
270.000000
0
LINE
8
0
10
624.251264
20
264.703328
30
0.0
11
624.251264
21
268.437643
31
0.0
0
ARC
8
0
10
624.351264
20
268.720485
30
0.0
40
0.300000
50
109.471221
51
250.528780
0
LINE
8
0
10
624.251264
20
269.003328
30
0.0
11
624.851264
21
269.003328
31
0.0
0
LINE
8
0
10
624.851264
20
269.003328
30
0.0
11
626.447388
21
268.033226
31
0.0
0
ARC
8
0
10
626.551264
20
268.204135
30
0.0
40
0.200000
50
238.709351
51
360.000000
0
LINE
8
0
10
626.751264
20
268.204135
30
0.0
11
626.751264
21
269.275471
31
0.0
0
ARC
8
0
10
625.751264
20
269.275471
30
0.0
40
1.000000
50
360.000000
51
58.709351
0
LINE
8
0
10
626.270644
20
270.130015
30
0.0
11
624.731884
21
271.065251
31
0.0
0
ARC
8
0
10
625.251264
20
271.919795
30
0.0
40
1.000000
50
180.000000
51
238.709351
0
LINE
8
0
10
624.251264
20
271.919795
30
0.0
11
624.251264
21
276.221178
31
0.0
0
ARC
8
0
10
625.251264
20
276.221178
30
0.0
40
1.000000
50
121.290649
51
180.000000
0
LINE
8
0
10
624.731884
20
277.075721
30
0.0
11
626.270644
21
278.010958
31
0.0
0
ARC
8
0
10
625.751264
20
278.865501
30
0.0
40
1.000000
50
301.290649
51
360.000000
0
LINE
8
0
10
626.751264
20
278.865501
30
0.0
11
626.751264
21
279.936529
31
0.0
0
ARC
8
0
10
626.551264
20
279.936838
30
0.0
40
0.200000
50
360.000000
51
121.290649
0
LINE
8
0
10
626.447388
20
280.107747
30
0.0
11
624.851264
21
279.137645
31
0.0
0
LINE
8
0
10
624.851264
20
279.137645
30
0.0
11
624.251264
21
279.137645
31
0.0
0
ARC
8
0
10
624.351264
20
279.420487
30
0.0
40
0.300000
50
109.471220
51
250.528779
0
LINE
8
0
10
624.251264
20
279.703330
30
0.0
11
624.251264
21
283.437645
31
0.0
0
ARC
8
0
10
624.351264
20
283.720487
30
0.0
40
0.300000
50
90.000000
51
250.528779
0
LINE
8
0
10
624.351264
20
284.020487
30
0.0
11
624.658079
21
284.020487
31
0.0
0
LINE
8
0
10
624.658079
20
284.020487
30
0.0
11
626.703769
21
283.472346
31
0.0
0
LINE
8
0
10
626.703769
20
283.472346
30
0.0
11
626.754303
21
283.185758
31
0.0
0
ARC
8
0
10
626.951264
20
283.220487
30
0.0
40
0.200000
50
190.000000
51
310.000000
0
LINE
8
0
10
627.079822
20
283.067278
30
0.0
11
627.212426
21
283.178547
31
0.0
0
ARC
8
0
10
626.762475
20
283.714778
30
0.0
40
0.700000
50
310.000000
51
5.000000
0
LINE
8
0
10
627.459811
20
283.775787
30
0.0
11
627.261138
21
286.046634
31
0.0
0
ARC
8
0
10
626.962280
20
286.020487
30
0.0
40
0.300000
50
5.000000
51
115.000000
0
LINE
8
0
10
626.835494
20
286.292380
30
0.0
11
624.751264
21
285.320487
31
0.0
0
LINE
8
0
10
624.751264
20
285.320487
30
0.0
11
618.351267
21
285.320487
31
0.0
0
LINE
8
0
10
618.351267
20
285.320487
30
0.0
11
618.151267
21
305.420483
31
0.0
0
LINE
8
0
10
618.151267
20
305.420483
30
0.0
11
619.151267
21
305.420483
31
0.0
0
ARC
8
0
10
619.151267
20
306.420483
30
0.0
40
1.000000
50
270.000000
51
360.000000
0
LINE
8
0
10
618.251267
20
259.796070
30
0.0
11
622.451264
21
259.796070
31
0.0
0
LINE
8
0
10
622.451264
20
259.796070
30
0.0
11
622.451264
21
283.720487
31
0.0
0
LINE
8
0
10
622.451264
20
283.720487
30
0.0
11
618.251267
21
283.720487
31
0.0
0
LINE
8
0
10
618.251267
20
283.720487
30
0.0
11
618.251267
21
259.796070
31
0.0
0
LINE
8
0
10
618.251267
20
259.796070
30
0.0
11
622.451264
21
259.796070
31
0.0
0
LINE
8
0
10
622.451264
20
259.796070
30
0.0
11
622.451264
21
283.720487
31
0.0
0
LINE
8
0
10
622.451264
20
283.720487
30
0.0
11
618.251267
21
283.720487
31
0.0
0
LINE
8
0
10
618.251267
20
283.720487
30
0.0
11
618.251267
21
259.796070
31
0.0
0
ATTDEF
8
0
10
658.878265
20
290.308276
30
0.0
40
3.5
1

3

2
VC_START
70
0
0
ATTDEF
8
0
10
658.951001
20
261.820483
30
0.0
40
3.5
1

3

2
VC_END
70
0
0
ATTDEF
8
0
10
616.651267
20
251.320484
30
0.0
40
3.5
1

3

2
JY:0.000000
70
0
0
ATTDEF
8
0
10
616.651267
20
251.320484
30
0.0
40
3.5
1

3

2
WY:0.000000
70
0
0
ATTDEF
8
0
10
616.651267
20
251.320484
30
0.0
40
3.5
1

3

2
DESC:Riporto centrale liscio
70
0
0
ATTDEF
8
0
10
616.651267
20
251.320484
30
0.0
40
3.5
1

3

2
DENS:1.468000
70
0
0
ATTDEF
8
0
10
616.651267
20
251.320484
30
0.0
40
3.5
1

3

2
TDEV:0.000000
70
0
0
ATTDEF
8
0
10
616.651267
20
251.320484
30
0.0
40
3.5
1

3

2
TDEV2:0.000000
70
0
0
ATTDEF
8
0
10
616.651267
20
251.320484
30
0.0
40
3.5
1

3

2
TDEV3:0.000000
70
0
0
ATTDEF
8
0
10
616.651267
20
251.320484
30
0.0
40
3.5
1

3

2
TDEV4:0.000000
70
0
0
ATTDEF
8
0
10
616.651267
20
251.320484
30
0.0
40
3.5
1

3

2
TDEV5:0.000000
70
0
0
ATTDEF
8
0
10
616.651267
20
251.320484
30
0.0
40
3.5
1

3

2
FRONT_VIEW
70
0
0
ATTDEF
8
0
10
616.651267
20
251.320484
30
0.0
40
3.5
1

3

2
PANE_WIDTH:0.000000
70
0
0
ATTDEF
8
0
10
616.651267
20
251.320484
30
0.0
40
3.5
1

3

2
GLASS_MIN:0.000000
70
0
0
ATTDEF
8
0
10
616.651267
20
251.320484
30
0.0
40
3.5
1

3

2
GLASS_MAX:0.000000
70
0
0
ATTDEF
8
0
10
616.651267
20
251.320484
30
0.0
40
3.5
1

3

2
JX:0.000000
70
0
0
ATTDEF
8
0
10
616.651267
20
251.320484
30
0.0
40
3.5
1

3

2
WX:0.000000
70
0
0
ATTDEF
8
0
10
616.651267
20
251.320484
30
0.0
40
3.5
1

3

2
JY:0.000000
70
0
0
ATTDEF
8
0
10
616.651267
20
251.320484
30
0.0
40
3.5
1

3

2
WY:0.000000
70
0
0
ATTDEF
8
0
10
616.651267
20
251.320484
30
0.0
40
3.5
1

3

2
FP_LCS_ORIG
70
0
0
ATTDEF
8
0
10
626.651267
20
251.320484
30
0.0
40
3.5
1

3

2
FP_LCS_HOT
70
0
0
ATTDEF
8
0
10
616.651267
20
261.320484
30
0.0
40
3.5
1

3

2
FP_LCS_INTERN
70
0
0
ATTDEF
8
0
10
616.651267
20
251.320484
30
0.0
40
3.5
1

3

2
BL01:6500.000000,,1
70
0
0
ATTDEF
8
0
10
616.651267
20
251.320484
30
0.0
40
3.5
1

3

2
OPTI:500.000000,1,0,3000.000000,6500.000000,500.000000,0,0.000000,1
70
0
0
ENDSEC
0
EOF
